<?xml version="1.0" standalone="no"?>
<!DOCTYPE svg PUBLIC "-//W3C//DTD SVG 1.1//EN" "http://www.w3.org/Graphics/SVG/1.1/DTD/svg11.dtd" >
<svg xmlns="http://www.w3.org/2000/svg">
<metadata>
This is a custom SVG webfont generated by Font Squirrel.
Copyright   : Design and copyright Peter Bilak 2001 Distributed by wwwtypothequecom
</metadata>
<defs>
<font id="FedraSansLightItalic" horiz-adv-x="1067" >
<font-face units-per-em="2048" ascent="1638" descent="-410" />
<missing-glyph horiz-adv-x="491" />
<glyph unicode=" "  horiz-adv-x="491" />
<glyph unicode="&#x09;" horiz-adv-x="491" />
<glyph unicode="&#xa0;" horiz-adv-x="491" />
<glyph unicode="!" horiz-adv-x="555" d="M188 0l15 145h141l-14 -145h-142zM242 326l22 258l92 864h111l-92 -864l-31 -258h-102z" />
<glyph unicode="&#x22;" horiz-adv-x="632" d="M219 1055l45 487h105l-62 -487h-88zM543 1055l45 487h104l-61 -487h-88z" />
<glyph unicode="#" horiz-adv-x="1161" d="M117 336l12 106h186l91 572h-218l11 104h221l53 330h109l-52 -330h373l53 330h109l-53 -330h184l-10 -104h-189l-90 -572h219l-12 -106h-225l-53 -336h-109l53 336h-374l-54 -336h-108l53 336h-180zM426 442h371l90 572h-373z" />
<glyph unicode="$" horiz-adv-x="954" d="M-12 76l51 108q193 -94 342 -94q356 0 356 299q0 76 -60.5 142.5t-147.5 121t-173 114.5t-146 148.5t-60 194.5q0 150 102 239t264 105l16 182h123l-22 -180q190 -10 299 -74l-35 -96q-133 63 -313 64q-317 0 -318 -244q0 -68 44 -128.5t109 -104.5l141 -97 q77 -53 141.5 -103t108.5 -125t44 -163q0 -174 -102.5 -275.5t-274.5 -123.5l-14 -187h-123l22 178q-94 2 -205.5 32t-168.5 67z" />
<glyph unicode="%" horiz-adv-x="1540" d="M203 201l1181 1089l58 -67l-1182 -1092zM207 1071q0 158 91 274.5t245 116.5q264 0 264 -260q0 -162 -90 -276.5t-248 -114.5q-125 0 -193.5 67.5t-68.5 192.5zM311 1077q0 -176 166 -176q113 0 171.5 84t58.5 201q0 88 -42 140t-130 52q-111 0 -167.5 -92t-56.5 -209z M885 244q0 160 90 275.5t246 115.5q264 0 264 -260q0 -162 -91 -276.5t-249 -114.5q-125 0 -192.5 67.5t-67.5 192.5zM989 250q0 -176 166 -176q111 0 169 85t58 199q0 88 -42 140.5t-130 52.5q-109 0 -165 -92t-56 -209z" />
<glyph unicode="&#x26;" horiz-adv-x="1220" d="M98 434q0 328 127 520.5t346 192.5q98 0 155.5 -51.5t57.5 -126.5q0 -221 -192 -324q72 8 102 8h369q115 0 194 95l60 -50q-59 -135 -227 -135h-136q-43 -244 -190.5 -413.5t-374.5 -169.5q-139 0 -215 120.5t-76 333.5zM213 498q0 -211 47 -311.5t148 -100.5 q152 0 273.5 131t158.5 346h-408l-10 66q92 33 172 119t80 174q0 131 -133 131q-125 0 -226.5 -158.5t-101.5 -396.5z" />
<glyph unicode="'" horiz-adv-x="309" d="M178 1055l45 487h105l-62 -487h-88z" />
<glyph unicode="(" horiz-adv-x="677" d="M168 401q0 209 59.5 431.5t187.5 429t300 313.5l59 -80q-225 -150 -353 -460t-128 -613q0 -213 73.5 -440.5t211.5 -354.5l-76 -80q-160 133 -247 378t-87 476z" />
<glyph unicode=")" horiz-adv-x="677" d="M23 -373q223 170 355 491.5t132 626.5q0 207 -74 424t-215 326l76 80q164 -117 252 -353.5t88 -484.5q0 -328 -150.5 -668.5t-404.5 -521.5z" />
<glyph unicode="*" horiz-adv-x="862" d="M201 1069l217 94l28 -65l-196 -133zM227 1325l72 105l172 -132l-47 -67zM457 838l49 227h76l-4 -227h-121zM535 1331v230h120l-45 -230h-75zM641 1096l49 67l195 -90l-72 -106zM664 1298l198 134l51 -103l-219 -94z" />
<glyph unicode="+" horiz-adv-x="929" d="M162 672l10 102h326l34 330h109l-35 -330h324l-10 -102h-324l-35 -328h-108l34 328h-325z" />
<glyph unicode="," horiz-adv-x="569" d="M84 -299l21 56l20 52l14.5 41.5t13.5 46t11 46t11 60.5t8 71l12 92h143q-16 -150 -44 -238t-110 -227h-100z" />
<glyph unicode="-" horiz-adv-x="733" d="M96 535l13 104h610l-12 -104h-611z" />
<glyph unicode="." horiz-adv-x="614" d="M242 0l14 145h141l-14 -145h-141z" />
<glyph unicode="/" horiz-adv-x="1034" d="M-33 -309l1139 1843l84 -53l-1139 -1843z" />
<glyph unicode="0" horiz-adv-x="1239" d="M111 522q0 127 16 248t59 249t109.5 223t176.5 156.5t249 61.5q410 0 409 -524q0 -127 -14 -249t-56 -253t-106.5 -228t-173 -160.5t-250.5 -63.5q-419 -1 -419 540zM233 545q0 -461 318 -461q94 0 170 40t124 110.5t82 152.5t50 180.5t23.5 179t7.5 164.5 q0 449 -310 449q-111 0 -196.5 -57.5t-135 -143.5t-81 -200.5t-42 -214t-10.5 -199.5z" />
<glyph unicode="1" horiz-adv-x="614" d="M74 1348l10 88l401 12l-151 -1448h-113l141 1348h-288z" />
<glyph unicode="2" horiz-adv-x="974" d="M-57 0l12 106q20 16 96 82l114 99l115 101q77 69 119 115l107 114q63 69 100 124.5t74 119t54.5 123.5t17.5 116q0 258 -254 258q-182 0 -318 -96l-47 88q166 119 387 118q170 0 260 -93t90 -265q0 -104 -49 -218t-113.5 -203t-175 -199.5t-182.5 -173.5l-186 -158 q-43 -35 -62 -52h766l-12 -106h-913z" />
<glyph unicode="3" horiz-adv-x="995" d="M-8 45l47 102q158 -57 305 -57q381 0 381 301q0 139 -111.5 220t-259.5 91l11 97q139 12 258.5 119.5t119.5 242.5q0 199 -251 199q-119 0 -246 -47l-31 90q53 29 143.5 46t161.5 17q154 0 243 -78.5t89 -230.5q0 -125 -101.5 -248t-230.5 -143q131 -33 224.5 -131 t93.5 -227q0 -219 -132.5 -325t-353.5 -106q-235 0 -360 68z" />
<glyph unicode="4" horiz-adv-x="1112" d="M14 412l13 112l665 924h193l-97 -930h265l-13 -106h-264l-43 -412h-117l43 412h-645zM147 518h525l88 858z" />
<glyph unicode="5" horiz-adv-x="1050" d="M70 23l43 110q115 -37 299 -37q168 0 272 96.5t104 262.5q0 139 -82.5 211.5t-224.5 72.5q-133 0 -286 -16l77 725h695l-13 -105h-585l-52 -499q68 4 207 4q172 0 276.5 -94.5t104.5 -266.5q0 -229 -138 -366t-368 -137q-206 0 -329 39z" />
<glyph unicode="6" horiz-adv-x="1130" d="M111 442q0 137 21.5 272.5t74.5 272.5t131 240.5t201 169t274 65.5q106 0 174 -22l-33 -101q-55 16 -153 17q-160 0 -279 -91t-181 -235.5t-91 -293t-29 -296.5q0 -178 69.5 -270t244.5 -92q152 0 248 125t96 286q0 133 -74 206t-207 73q-57 0 -143 -14l-2 102 q86 18 172 18q170 0 269 -98t99 -260q0 -233 -125 -388t-346 -155q-225 0 -318 118t-93 351z" />
<glyph unicode="7" horiz-adv-x="858" d="M45 31l756 1310h-735l12 107h850l-13 -117l-772 -1345z" />
<glyph unicode="8" horiz-adv-x="1132" d="M70 276q0 86 34.5 162t99 136.5t127 103.5t144.5 86q-63 43 -97 69.5t-78 71.5t-63.5 96.5t-19.5 112.5q0 182 127 265t318 83q143 0 246.5 -64.5t103.5 -199.5q0 -80 -28 -146.5t-87 -120.5t-106.5 -87t-131.5 -82q68 -43 112 -76t98.5 -84t82 -110.5t27.5 -124.5 q0 -195 -145.5 -291t-350.5 -96q-76 0 -145.5 15t-132 47t-99 92t-36.5 142zM190 293q0 -82 52.5 -132t117 -65.5t146.5 -15.5q154 0 253 66.5t99 213.5q0 49 -27.5 98.5t-72.5 89.5t-91 73.5t-92 62.5q-14 8 -20 12q-365 -184 -365 -403zM332 1133q0 -49 20.5 -93.5 t67.5 -88.5t70.5 -63.5t82.5 -62.5q72 41 111 65.5t97.5 73t87 102.5t28.5 116q0 184 -246 184q-135 0 -227 -53t-92 -180z" />
<glyph unicode="9" horiz-adv-x="1144" d="M145 -6l33 108q63 -18 135 -18q600 0 600 844q0 106 -25.5 195t-96 158t-179.5 69q-170 0 -257 -123t-87 -299q0 -154 65.5 -221.5t211.5 -67.5q72 0 149 16l8 -100q-102 -23 -198 -23q-176 0 -266.5 100.5t-90.5 276.5q0 238 129.5 393.5t360.5 155.5q106 0 185 -44 t123 -119.5t65.5 -165t21.5 -189.5q0 -154 -20.5 -288t-71.5 -262t-132 -218t-210 -145.5t-297 -55.5q-80 0 -156 23z" />
<glyph unicode=":" horiz-adv-x="614" d="M236 0l16 145h141l-14 -145h-143zM338 973l16 145h142l-17 -145h-141z" />
<glyph unicode=";" horiz-adv-x="569" d="M145 -299l22 56l19 52l14.5 41.5t13.5 46t11 46t11.5 60.5l8.5 71l11 92h143q-16 -150 -43.5 -238t-109.5 -227h-101zM338 973l16 145h142l-17 -145h-141z" />
<glyph unicode="&#x3c;" horiz-adv-x="876" d="M127 631l20 186l789 326l-12 -117l-729 -303l665 -301l-12 -117z" />
<glyph unicode="=" horiz-adv-x="899" d="M111 473l12 102h776l-12 -102h-776zM154 877l10 102h776l-10 -102h-776z" />
<glyph unicode="&#x3e;" horiz-adv-x="876" d="M94 305l12 117l730 301l-666 303l12 117l719 -326l-20 -186z" />
<glyph unicode="?" horiz-adv-x="784" d="M250 0l14 145h142l-15 -145h-141zM289 420q0 90 40 167t96 133l113 107q56 51 96 111.5t40 126.5q0 125 -105.5 197.5t-242.5 87.5l36 102q174 -14 303.5 -110.5t129.5 -260.5q0 -88 -37 -160.5t-90.5 -125t-108.5 -100.5t-98 -107.5t-53 -124.5q-2 -16 -2 -48t2 -79 l-111 -12q-8 41 -8 96z" />
<glyph unicode="@" horiz-adv-x="1589" d="M100 416q0 213 60.5 401.5t174.5 333.5t291 229t394 84q231 0 352 -119.5t121 -351.5q0 -117 -29.5 -233.5t-88 -220t-159 -168t-225.5 -64.5q-129 0 -129 102q0 18 4 40q-45 -45 -124.5 -86t-135.5 -41q-160 0 -160 186q0 213 118 366.5t325 153.5q106 0 192 -43 l-108 -487q-8 -33 -8 -52q0 -47 32 -47q106 0 184.5 55.5t119 146.5t60 186.5t19.5 193.5q0 381 -376 381q-197 0 -349.5 -76t-246 -207t-140.5 -297t-47 -356q0 -236 111.5 -349.5t343.5 -113.5q156 0 303 37l14 -96q-129 -51 -350 -51q-264 0 -403.5 148.5t-139.5 414.5z M551 520q0 -51 16.5 -74.5t63.5 -23.5q55 0 129 43t121 92l80 365q-57 12 -86 12q-160 0 -242 -123t-82 -291z" />
<glyph unicode="A" horiz-adv-x="1251" d="M-66 0l721 1448h199l295 -1448h-127l-113 571h-565l-283 -571h-127zM395 676h494l-141 717z" />
<glyph unicode="B" horiz-adv-x="1241" d="M154 0l153 1448h369q393 0 393 -318q0 -125 -67.5 -228t-186.5 -132l2 -6q123 -10 201 -97t78 -212q0 -227 -136.5 -341t-373.5 -114h-432zM289 104h270q199 0 304.5 73t105.5 265q0 61 -18.5 106.5t-56.5 72t-74 42t-96 22.5t-95 8t-99 1h-180zM362 799h222 q176 0 264 73.5t88 249.5q0 139 -81 184.5t-232 45.5h-203z" />
<glyph unicode="C" horiz-adv-x="1210" d="M106 639q0 367 211 594t574 227q199 0 323 -55l-45 -100q-129 47 -284 47q-311 0 -481.5 -194.5t-170.5 -516.5q0 -264 148.5 -406.5t411.5 -142.5q172 0 307 45l24 -106q-164 -51 -383 -51q-293 0 -464 180t-171 479z" />
<glyph unicode="D" horiz-adv-x="1470" d="M154 0l153 1448h352q319 0 511 -161t192 -480q0 -395 -217 -601t-617 -206h-374zM283 104h272q330 0 506 177.5t176 521.5q0 274 -157.5 407t-436.5 133h-229z" />
<glyph unicode="E" horiz-adv-x="1150" d="M154 0l153 1448h772l-10 -102h-651l-60 -566h607l-11 -106h-606l-61 -572h700l-10 -104z" />
<glyph unicode="F" horiz-adv-x="931" d="M154 0l153 1448h658l-11 -102h-536l-64 -607h492l-10 -108h-494l-66 -631h-122z" />
<glyph unicode="G" horiz-adv-x="1359" d="M104 641q0 365 210 592t571 227q203 0 321 -51l-47 -100q-127 43 -280 43q-309 0 -478.5 -194.5t-169.5 -516.5q0 -264 148.5 -406.5t413.5 -142.5q154 0 274 31l49 485h123l-59 -563q-123 -37 -209 -51t-230 -14q-293 0 -465 180t-172 481z" />
<glyph unicode="H" horiz-adv-x="1519" d="M154 0l153 1448h121l-70 -670h816l69 672h123l-152 -1450h-122l71 674h-815l-72 -674h-122z" />
<glyph unicode="I" horiz-adv-x="583" d="M154 0l153 1448h121l-152 -1448h-122z" />
<glyph unicode="J" horiz-adv-x="581" d="M-158 -287q186 98 260 229.5t99 366.5l121 1139h120l-118 -1135q-27 -262 -126.5 -428t-308.5 -262z" />
<glyph unicode="K" horiz-adv-x="1204" d="M154 0l153 1448h121l-152 -1448h-122zM428 748l4 40l631 660h158l-656 -668l529 -751l-105 -72z" />
<glyph unicode="L" horiz-adv-x="978" d="M154 0l153 1448h121l-139 -1337h629l-13 -111h-751z" />
<glyph unicode="M" horiz-adv-x="1773" d="M-8 0l461 1448h180l117 -1399l634 1399h181l-72 -1448h-123l74 1317l-596 -1317h-215l-111 1319l-409 -1319h-121z" />
<glyph unicode="N" horiz-adv-x="1486" d="M154 0l155 1448h203l557 -1403l143 1403h121l-157 -1448h-215l-541 1368l-144 -1368h-122z" />
<glyph unicode="O" horiz-adv-x="1595" d="M106 635q0 369 210 602t571 233q289 0 446.5 -179t157.5 -478q0 -371 -212 -603.5t-577 -232.5q-289 0 -442.5 178.5t-153.5 479.5zM231 639q0 -250 124 -403.5t366 -153.5q305 0 473 209t168 524q0 250 -127 398.5t-367 148.5q-299 0 -468 -206t-169 -517z" />
<glyph unicode="P" horiz-adv-x="1146" d="M154 -2l153 1450h449q186 0 295.5 -94t109.5 -283q0 -139 -50 -241.5t-139 -159t-196.5 -83t-236.5 -26.5l12 105q104 4 181 21.5t148.5 58t109.5 120.5t38 199q0 283 -328 283h-280l-141 -1350h-125z" />
<glyph unicode="Q" horiz-adv-x="1595" d="M106 635q0 369 210 602t571 233q289 0 446.5 -179t157.5 -478q0 -371 -212 -603.5t-577 -232.5q-289 0 -442.5 178.5t-153.5 479.5zM231 639q0 -250 124 -403.5t366 -153.5q305 0 473 209t168 524q0 250 -127 398.5t-367 148.5q-299 0 -468 -206t-169 -517zM676 -164 l10 101l784 -132l-12 -112z" />
<glyph unicode="R" horiz-adv-x="1253" d="M154 -2l153 1450h422q186 0 298 -91t112 -251q0 -156 -88 -274.5t-252 -159.5l399 -643l-113 -64l-413 678q-76 -8 -324 -8l-69 -637h-125zM358 741h207q209 0 325 90.5t116 272.5q0 244 -330 244h-256z" />
<glyph unicode="S" horiz-adv-x="954" d="M-12 76l51 108q193 -94 342 -94q356 0 356 299q0 76 -60.5 141.5t-147.5 118.5t-173 112.5t-146 148.5t-60 200q0 168 124.5 258t313.5 90q100 0 197.5 -22.5t146.5 -53.5l-35 -96q-125 59 -313 60q-317 0 -318 -240q0 -80 60.5 -147.5t147.5 -122l173 -113.5t146.5 -145 t60.5 -193q0 -201 -133 -304.5t-348 -103.5q-92 0 -209 30t-176 69z" />
<glyph unicode="T" horiz-adv-x="1107" d="M70 1339l12 109h1130l-12 -109h-504l-141 -1339h-121l139 1339h-503z" />
<glyph unicode="U" horiz-adv-x="1462" d="M176 477l103 971h124l-100 -956q-4 -40 -4 -77q0 -333 371 -333q188 0 310 102.5t148 358.5l95 905h114l-96 -911q-16 -162 -72.5 -278t-139.5 -175t-169 -84t-184 -25q-111 0 -199 22.5t-166 76t-114 155.5q-26 71 -26 163q0 40 5 85z" />
<glyph unicode="V" horiz-adv-x="1284" d="M94 1448h127l324 -1370l702 1370h133l-753 -1448h-178z" />
<glyph unicode="W" horiz-adv-x="1787" d="M78 1448h125l182 -1354l502 1055l-58 299h127l256 -1362l533 1362h121l-570 -1448h-180l-198 973l-463 -973h-170z" />
<glyph unicode="X" horiz-adv-x="1136" d="M-84 0l592 770l-322 678h133l271 -580l438 580h127l-518 -680l369 -768h-132l-317 659l-506 -659h-135z" />
<glyph unicode="Y" horiz-adv-x="1013" d="M51 1448h133l305 -760l498 760h129l-579 -866l-62 -582h-121l60 582z" />
<glyph unicode="Z" horiz-adv-x="1052" d="M-20 0l12 123l907 1218h-727l12 107h865l-11 -109l-913 -1233h827l-12 -108z" />
<glyph unicode="[" horiz-adv-x="712" d="M121 -451l211 1995h319l-10 -98h-205l-188 -1798h205l-11 -99h-321z" />
<glyph unicode="\" horiz-adv-x="1128" d="M90 1485l90 51l989 -1843l-88 -51z" />
<glyph unicode="]" horiz-adv-x="712" d="M70 -451l10 99h205l188 1798h-205l11 98h321l-211 -1995h-319z" />
<glyph unicode="^" horiz-adv-x="1140" d="M123 602l416 846h170l206 -846h-124l-175 768l-366 -768h-127z" />
<glyph unicode="_" horiz-adv-x="1015" d="M0 -213h1016v-111h-1016v111z" />
<glyph unicode="`" horiz-adv-x="1198" d="M444 1526l72 90l332 -264l-60 -76z" />
<glyph unicode="a" d="M96 360q0 317 185.5 541.5t455.5 224.5q117 0 185 -14l-115 -1112h-117l25 219q-137 -125 -235.5 -185.5t-180.5 -60.5q-100 0 -151.5 106.5t-51.5 280.5zM211 379q0 -172 28.5 -232.5t84.5 -60.5q70 0 198.5 96.5t204.5 171.5l72 666q-20 4 -84 4q-215 0 -359.5 -195.5 t-144.5 -449.5z" />
<glyph unicode="b" horiz-adv-x="1095" d="M143 29l160 1517h113l-62 -602q4 4 33 22.5t38 23.5t36.5 22.5t41 23.5t40 20.5t44 20.5t44 16.5t47 14.5t46.5 7t50 3q236 0 236 -317q0 -111 -21.5 -222.5t-70 -219t-116 -190.5t-169 -133t-219.5 -50q-41 0 -81 4t-63.5 9t-66 15.5t-60.5 14.5zM264 113l45 -10 q25 -5 38 -8t34.5 -5t46.5 -2q102 0 184 49t133.5 125t85 174.5t47 189.5t13.5 177q0 123 -36 167t-110 44q-143 0 -405 -180z" />
<glyph unicode="c" horiz-adv-x="897" d="M96 375q0 330 144.5 551t392.5 221q143 0 244 -105l-70 -67q-86 72 -191 72q-111 0 -192.5 -66t-123.5 -169t-61.5 -206.5t-19.5 -206.5q0 -147 38 -231t87 -84q147 0 389 123l43 -86q-246 -145 -436 -146q-70 0 -120 41t-75.5 105.5t-37 128.5t-11.5 125z" />
<glyph unicode="d" horiz-adv-x="1054" d="M98 336q0 348 187 571q183 219 457 219h10q8 0 28.5 -1t32.5 -1l45 422h115l-166 -1546h-115l23 219q-268 -246 -416 -246q-106 0 -153.5 102.5t-47.5 260.5zM211 379q0 -172 28.5 -232.5t84.5 -60.5q127 0 403 266l72 674l-105 2h-4q-194 0 -336 -204 q-143 -205 -143 -445z" />
<glyph unicode="e" horiz-adv-x="886" d="M94 389q0 326 138.5 543t379.5 217q129 0 193.5 -68.5t64.5 -175.5q0 -176 -270 -282l-385 -148q-2 -20 -2 -63q0 -328 139 -328q133 0 355 111l41 -93q-172 -90 -267 -110q-72 -16 -143 -17q-129 0 -186.5 116t-57.5 298zM225 586l344 137q186 74 187 178 q0 76 -43 109.5t-107 33.5q-305 1 -381 -458z" />
<glyph unicode="f" horiz-adv-x="616" d="M84 1016l10 102h166l10 113q12 111 51 183.5t102.5 108.5t127 49t147.5 13t174 -29l-30 -94q-82 23 -158 23q-145 0 -218 -59.5t-87 -196.5l-10 -111h241l-8 -102h-244l-153 -1467h-109l152 1467h-164z" />
<glyph unicode="g" d="M-27 -434l25 90q213 -33 283 -33q176 0 280.5 68.5t124.5 259.5l29 268q-137 -129 -232.5 -187.5t-183.5 -58.5q-100 0 -151.5 106.5t-51.5 280.5q0 317 185.5 541.5t455.5 224.5q117 0 185 -14l-125 -1192q-14 -141 -92 -233.5t-177.5 -126t-218.5 -33.5q-154 0 -336 39 zM211 379q0 -172 28.5 -232.5t84.5 -60.5q70 0 198.5 96.5t204.5 171.5l72 666q-20 4 -84 4q-215 0 -359.5 -195.5t-144.5 -449.5z" />
<glyph unicode="h" horiz-adv-x="1114" d="M141 0l164 1546h115l-66 -628q2 2 38 32l51 43l54 41q38 29 65.5 44.5t64.5 33.5t72.5 26.5t70.5 8.5q100 0 143 -38t43 -113.5t-12 -188.5l-88 -807h-115l86 780q15 95 16 152q0 36 -6 56q-15 54 -110 54q-33 0 -93.5 -33.5t-112.5 -70.5l-111 -83l-68 -52l-86 -803 h-115z" />
<glyph unicode="i" horiz-adv-x="540" d="M143 0l117 1118h115l-117 -1118h-115zM240 1466l125 107l104 -107l-129 -108z" />
<glyph unicode="j" horiz-adv-x="540" d="M-258 -434l31 94q25 -6 100 -6q131 0 189.5 79t74.5 224l123 1161h115l-123 -1163q-43 -406 -402 -406q-65 1 -108 17zM238 1466l124 107l105 -107l-129 -108z" />
<glyph unicode="k" horiz-adv-x="978" d="M141 0l162 1544h117l-164 -1544h-115zM385 596l416 522h143l-420 -522l381 -569l-108 -62z" />
<glyph unicode="l" horiz-adv-x="544" d="M143 0l162 1544h115l-162 -1544h-115z" />
<glyph unicode="m" horiz-adv-x="1669" d="M141 0l117 1118h117l-21 -198q4 2 33 27l42 37q13 11 46 35.5l53 38.5l55 34q34 20 59.5 29t56 17.5t57.5 8.5q115 0 150 -48q31 -41 31 -128q0 -15 -1 -31q231 207 395 207q98 0 140 -38q41 -37 41 -110q0 -70 -13 -192l-88 -807h-113l84 780q16 97 16 155q0 33 -5 53 q-14 54 -111 54q-53 0 -181 -89t-177 -134l-88 -819h-115l86 780q16 97 15 154q0 33 -5 52q-14 52 -108 52q-25 0 -81.5 -32.5t-106.5 -69.5l-109 -82q-59 -45 -70 -51l-86 -803h-115z" />
<glyph unicode="n" horiz-adv-x="1114" d="M141 0l117 1118h117l-21 -200q2 2 38 32l51 43l54 41q38 29 65.5 44.5t64.5 33.5t72.5 26.5t70.5 8.5q100 0 143 -38t43 -113.5t-12 -188.5l-88 -807h-115l86 780q15 95 16 152q0 36 -6 56q-15 54 -110 54q-31 0 -92.5 -33.5t-112.5 -70.5l-111 -83l-69 -52l-86 -803 h-115z" />
<glyph unicode="o" horiz-adv-x="1026" d="M96 358q0 360 150.5 574.5t390.5 214.5q141 0 219 -111.5t78 -259t-30 -284t-90 -255t-167.5 -190.5t-247 -72t-221.5 111.5t-82 271.5zM217 395q0 -317 217 -317q158 0 269.5 190.5t111.5 470.5q0 158 -51 233t-172 75q-145 0 -260 -197t-115 -455z" />
<glyph unicode="p" horiz-adv-x="1095" d="M88 -451l170 1569h113l-17 -174q244 174 418 174q236 0 236 -317q0 -111 -21.5 -222.5t-70 -219t-116 -190.5t-169 -133t-219.5 -50q-66 0 -160 16l-49 -453h-115zM264 113l43 -10q25 -5 38 -8t34.5 -5t46.5 -2q102 0 184 49t133.5 125t85 174.5t47 189.5t13.5 177 q0 123 -36 167t-110 44q-141 0 -403 -180z" />
<glyph unicode="q" d="M96 360q0 317 185.5 541.5t455.5 224.5q117 0 185 -14l-162 -1563h-117l72 670q-145 -127 -239.5 -186.5t-176.5 -59.5q-100 0 -151.5 106.5t-51.5 280.5zM211 379q0 -172 28.5 -232.5t84.5 -60.5q70 0 198.5 96.5t204.5 171.5l72 666q-20 4 -84 4q-215 0 -359.5 -195.5 t-144.5 -449.5z" />
<glyph unicode="r" horiz-adv-x="706" d="M141 0l117 1118h115l-21 -207l94 93q35 33 123 84t158 51q18 0 47 -4l-22 -105q-6 2 -33 2q-20 0 -45 -8t-46.5 -18.5t-52 -30l-51 -33.5t-53.5 -41l-47 -38q-14 -11 -46 -38.5t-38 -31.5l-84 -793h-115z" />
<glyph unicode="s" horiz-adv-x="866" d="M59 29l35 100q125 -43 258 -43q39 0 79 7t88 24.5t78 57.5t30 95q0 68 -45 126.5t-109 104.5l-127 94q-63 48 -108 114.5t-45 146.5q0 152 98 216.5t254 64.5q147 0 270 -60l-37 -86q-145 47 -264 47q-213 0 -213 -159q0 -68 45 -125.5t109.5 -102.5t128 -94 t108.5 -119.5t45 -158.5q0 -158 -114.5 -227.5t-278.5 -69.5q-179 0 -285 47z" />
<glyph unicode="t" horiz-adv-x="765" d="M88 1014l10 104h164l23 230h114l-22 -230h362l-10 -104h-362l-82 -744q-5 -50 -6 -85q0 -47 10 -67q16 -36 84 -36q104 0 243 70l31 -97q-39 -25 -123 -52.5t-168 -27.5q-96 0 -135 31q-58 47 -58 173q0 37 5 81l84 754h-164z" />
<glyph unicode="u" horiz-adv-x="1112" d="M168 297l88 821h115l-86 -776q-11 -81 -11 -135q0 -49 9 -76q18 -57 100 -57q23 0 47.5 5t51 17.5l48 23.5t49 32.5t44 33t45.5 36.5l38 34q9 8 35 35l29 26l86 801h115l-119 -1118h-115l21 201q-59 -61 -102.5 -99.5t-128.5 -81.5t-165 -43q-129 0 -171 76 q-29 53 -29 150q0 43 6 94z" />
<glyph unicode="v" horiz-adv-x="935" d="M98 1118h127l162 -1057l324 682q45 96 73 208q22 87 23 140q0 15 -2 27h115q1 -16 1 -32q0 -148 -100 -351l-350 -735h-180z" />
<glyph unicode="w" horiz-adv-x="1550" d="M98 1118h127l168 -1057l389 660l-69 397h127l161 -1057l324 682q45 98 73 209q21 85 21 138q0 16 -2 28h117q1 -15 1 -31q0 -142 -99 -352l-351 -735h-182l-96 575l-336 -575h-174z" />
<glyph unicode="x" horiz-adv-x="868" d="M-72 0l441 602l-224 516h123l176 -416l304 416h120l-381 -522l252 -596h-121l-206 487l-361 -487h-123z" />
<glyph unicode="y" horiz-adv-x="935" d="M98 1118h127l158 -1059l328 684q45 96 73 208q22 87 23 140q0 15 -2 27h115q1 -15 1 -30q0 -141 -100 -353l-547 -1186h-108l194 451h-84z" />
<glyph unicode="z" horiz-adv-x="872" d="M-12 0l12 115l723 899h-573l10 104h702l-10 -108l-739 -908h653l-10 -102h-768z" />
<glyph unicode="{" horiz-adv-x="692" d="M141 502l13 116q74 0 134 67t60 146v431q0 324 397 323h25l-10 -98h-37q-137 0 -201.5 -52.5t-64.5 -179.5l2 -376q0 -133 -58.5 -213t-158.5 -101v-4q163 -54 162 -218q0 -43 -11 -93l-82 -381q-7 -35 -7 -64q0 -68 40 -105q57 -52 186 -52h37l-10 -97h-25 q-55 0 -96 4.5t-89 15.5t-75.5 33.5t-54.5 58.5q-26 35 -26 85t12 129l88 412q4 19 4 38q0 54 -34 105q-46 70 -120 70z" />
<glyph unicode="|" horiz-adv-x="575" d="M96 -451l209 1995h115l-209 -1995h-115z" />
<glyph unicode="}" horiz-adv-x="692" d="M-16 -449l10 97h37q129 0 197.5 52t66.5 169v381q0 240 217 311v4q-96 20 -138 101q-25 47 -25 113q0 45 11 100l82 376q9 42 9 76q0 68 -36 103q-54 51 -192 51h-37l13 100h24q82 0 144.5 -14.5t117 -50t68.5 -98.5q7 -31 7 -71t-7 -89l-90 -431q-4 -20 -4 -40 q0 -55 34 -105q46 -68 119 -68l-12 -116q-74 0 -134 -70t-60 -143l2 -412q0 -104 -33 -173t-95.5 -99.5t-124 -42t-147.5 -11.5h-24z" />
<glyph unicode="~" horiz-adv-x="1034" d="M41 756q121 88 258 88q111 0 235.5 -63.5t215.5 -63.5q84 0 178 67l65 -77q-113 -102 -243 -103q-113 0 -249 61.5t-214 61.5q-84 0 -191 -59z" />
<glyph unicode="&#xa1;" horiz-adv-x="555" d="M111 -330l90 865l32 258h103l-25 -258l-90 -865h-110zM231 973l17 145h141l-16 -145h-142z" />
<glyph unicode="&#xa2;" horiz-adv-x="960" d="M172 582q0 295 118 506.5t324 257.5l15 198h123l-25 -190q141 -16 221 -107l-63 -69q-70 74 -195 73q-109 0 -189.5 -64.5t-122.5 -168t-61.5 -206.5t-19.5 -206q0 -147 37 -232t86 -85q158 0 387 125l45 -86q-106 -74 -246 -119l-16 -209h-123l25 186q-4 0 -31 -3 t-39 -3q-74 0 -126 39t-77.5 104.5t-36 128t-10.5 130.5z" />
<glyph unicode="&#xa3;" horiz-adv-x="927" d="M8 0l12 109q84 27 144.5 178t73.5 243h-203l12 111h213q12 76 49 408q8 76 32 138t51.5 102t73.5 71t77.5 46t87 25.5t80 13.5t76 5t55.5 2l-6 -109q-6 0 -49.5 -3t-55.5 -4t-51 -6t-53.5 -11l-46 -18.5t-45.5 -26.5l-38 -37q-24 -23 -35 -50.5t-22.5 -64.5t-15.5 -82 q-29 -295 -49 -399h387l-12 -111h-394q-61 -305 -184 -421h686l-12 -109h-838z" />
<glyph unicode="&#xa4;" horiz-adv-x="1177" d="M-25 479l13 109h172v24q0 121 26 246h-172l11 111h190q70 217 217.5 355t384.5 138q188 0 295 -59l-45 -94q-102 45 -264 45q-180 0 -300 -107.5t-179 -277.5h522l-10 -111h-543q-20 -96 -21 -192q0 -51 2 -78h533l-10 -109h-512q53 -389 401 -389q74 0 167 17.5 t122 29.5l31 -102q-135 -55 -344 -55q-104 0 -187.5 30.5t-136.5 78.5t-90 116.5t-54.5 134.5t-25.5 139h-193z" />
<glyph unicode="&#xa5;" horiz-adv-x="1087" d="M12 229l11 107h419l23 203h-420l10 106h381l-334 803h134l309 -766l495 766h125l-526 -803h399l-10 -106h-442l-23 -203h443l-11 -107h-442l-25 -229h-120l24 229h-420z" />
<glyph unicode="&#xa6;" horiz-adv-x="565" d="M117 -451l78 742h114l-78 -742h-114zM250 803l78 739h114l-77 -739h-115z" />
<glyph unicode="&#xa7;" horiz-adv-x="815" d="M152 721q14 141 174 256q-38 92 -38 170q0 14 1 29q29 248 340 294l22 -100q-223 -45 -237 -168q-2 -16 -3 -32q0 -74 46 -156l223 -414q47 -85 46 -188q0 -28 -3 -58q-8 -72 -58.5 -146.5t-119.5 -121.5q33 -57 33 -147q0 -39 -7 -84q-43 -274 -411 -291v112 q41 4 67.5 8.5t71.5 16.5t72.5 29.5t51 49.5t28.5 73q3 24 3 47q0 91 -44 174l-211 397q-49 97 -50 205q1 22 3 45zM272 723q-1 -12 -1 -24q0 -67 38 -144l195 -371q88 54 102 178q1 14 1 29q0 77 -38 150l-192 354q-95 -68 -105 -172z" />
<glyph unicode="&#xa8;" horiz-adv-x="794" d="M309 1464l109 99l88 -99l-109 -96zM735 1464l107 99l88 -99l-109 -96z" />
<glyph unicode="&#xa9;" horiz-adv-x="1693" d="M123 727q0 342 206 545t539 203q336 0 519.5 -210t183.5 -542q0 -340 -198.5 -546t-543.5 -206q-330 0 -518 209t-188 547zM240 729q0 -178 63.5 -323.5t201.5 -238.5t331 -93q303 0 461.5 181t158.5 470q0 285 -160.5 466t-445.5 181q-293 0 -451.5 -179t-158.5 -464z M467 737q0 203 110.5 318.5t321.5 115.5q145 0 240 -55l-37 -80q-98 45 -201 45q-143 0 -237.5 -84t-94.5 -249q0 -168 101.5 -255t257.5 -87q76 0 190 34l31 -78q-119 -49 -246 -49q-209 0 -322.5 117t-113.5 307z" />
<glyph unicode="&#xaa;" horiz-adv-x="864" d="M100 612l13 103h555l-15 -103h-553zM209 1020q0 184 107.5 317t271.5 133q55 0 123 -14l-70 -655h-100l14 106q-131 -117 -213 -116q-133 0 -133 229zM307 1032q0 -145 45 -145q37 0 104.5 45t106.5 82l37 356l-10 2h-17h-10h-7q-96 0 -171 -103q-78 -108 -78 -237z" />
<glyph unicode="&#xab;" horiz-adv-x="856" d="M162 557l254 447l92 -35l-219 -412l131 -407l-98 -39zM502 557l256 447l90 -35l-219 -412l131 -407l-98 -39z" />
<glyph unicode="&#xac;" horiz-adv-x="919" d="M111 668l12 104h749l-45 -428h-110l33 324h-639z" />
<glyph unicode="&#xad;" horiz-adv-x="733" d="M96 535l13 104h610l-12 -104h-611z" />
<glyph unicode="&#xae;" horiz-adv-x="1693" d="M123 727q0 342 206 545t539 203q338 0 520.5 -209t182.5 -543q0 -340 -198.5 -546t-543.5 -206q-330 0 -518 208t-188 548zM240 729q0 -178 63.5 -323.5t201.5 -238.5t331 -93q303 0 461.5 181t158.5 470q0 285 -160.5 466t-445.5 181q-293 0 -451.5 -179t-158.5 -464z M567 330v856h275q127 0 197.5 -67.5t70.5 -194.5q0 -176 -160 -244l60 -73q47 -58 74.5 -89t74.5 -67.5t88 -49.5l-22 -86q-113 12 -207 129q-18 12 -170 215q-41 -4 -68 -4h-112v-325h-101zM668 748h120q217 0 218 167q0 96 -44 140.5t-145 44.5h-149v-352z" />
<glyph unicode="&#xaf;" horiz-adv-x="1097" d="M391 1382l10 99h596l-10 -99h-596z" />
<glyph unicode="&#xb0;" horiz-adv-x="679" d="M57 1155q0 139 83 227t220 88q106 0 174 -64.5t68 -166.5q0 -137 -86 -222t-221 -85q-113 0 -175.5 58.5t-62.5 164.5zM164 1167q0 -147 145 -147q90 0 136.5 59.5t46.5 151.5q0 70 -38 109.5t-106 39.5q-90 0 -137 -60.5t-47 -152.5z" />
<glyph unicode="&#xb1;" horiz-adv-x="931" d="M82 0l12 106h766l-10 -106h-768zM154 670l10 106h325l35 328h117l-35 -328h324l-10 -106h-326l-33 -326h-117l33 326h-323z" />
<glyph unicode="&#xb2;" horiz-adv-x="524" d="M16 823l9 74q18 18 89.5 78.5t114.5 101.5t84 101.5t41 109.5q0 86 -88 86q-82 0 -145 -43l-35 68q78 61 193 61q178 0 178 -155q0 -74 -53.5 -154t-92.5 -115t-135 -108l-24 -21h290l-10 -84h-416z" />
<glyph unicode="&#xb3;" horiz-adv-x="507" d="M23 848l30 74q80 -27 150 -27q72 0 108.5 23.5t36.5 91.5q0 33 -13 54t-42 31.5t-48.5 13.5t-58.5 7l7 66q160 16 159 133q0 61 -92 61q-61 0 -115 -20l-30 63q72 41 161 41q68 0 117 -32.5t49 -98.5q0 -92 -100 -170q100 -53 100 -139q0 -102 -66.5 -152.5t-170.5 -50.5 q-110 0 -182 31z" />
<glyph unicode="&#xb4;" horiz-adv-x="1198" d="M492 1352l358 276l68 -86l-371 -262z" />
<glyph unicode="&#xb5;" horiz-adv-x="1112" d="M90 -451l166 1569h115l-86 -778q-11 -80 -11 -134q0 -51 10 -79q19 -57 101 -57q66 0 138.5 44t155.5 119.5t91 81.5l86 803h115l-119 -1118h-115l21 201q-18 -14 -76.5 -67.5t-95.5 -82t-101 -56.5q-59 -26 -118 -26h-9q-72 4 -110 17l-45 -437h-113z" />
<glyph unicode="&#xb6;" horiz-adv-x="1224" d="M129 946q0 221 115.5 360.5t335.5 141.5h190l-90 -875h-10h-13h-12h-12h-12h-15h-14h-17h-22h2q-426 0 -426 373zM434 -434l33 94q16 -8 96 -8q133 0 192.5 80t75.5 223l156 1493h115l-158 -1495q-18 -197 -111.5 -300.5t-281.5 -103.5q-78 1 -117 17z" />
<glyph unicode="&#xb7;" horiz-adv-x="569" d="M213 647l16 156h146l-17 -156h-145z" />
<glyph unicode="&#xb8;" horiz-adv-x="919" d="M326 -406q119 70 127 162q1 6 0 13q0 47 -37 127h127q28 -52 27 -108q0 -11 -1 -21q-12 -154 -213 -236z" />
<glyph unicode="&#xb9;" horiz-adv-x="393" d="M88 1370l8 78l223 6l-67 -631h-96l57 547h-125z" />
<glyph unicode="&#xba;" horiz-adv-x="864" d="M100 612l13 103h555l-15 -103h-553zM184 1051q0 190 80 308t221 118q102 0 153.5 -80t51.5 -185q0 -100 -24.5 -190t-95 -162t-179.5 -72q-90 0 -148.5 78.5t-58.5 184.5zM289 1065q0 -76 28.5 -132t90.5 -56q86 0 134 111.5t48 219.5q0 72 -33 127.5t-92 55.5 q-61 0 -103.5 -58.5t-57.5 -129t-15 -138.5z" />
<glyph unicode="&#xbb;" horiz-adv-x="856" d="M119 150l217 407l-133 412l100 35l160 -447l-254 -446zM459 150l217 407l-133 412l100 35l160 -447l-254 -446z" />
<glyph unicode="&#xbc;" horiz-adv-x="1626" d="M184 201l1174 1089l53 -73l-1171 -1090zM295 1370l8 78l223 6l-65 -631h-96l57 547h-127zM887 166l10 106l256 359h141l-39 -379h117l-8 -86h-119l-16 -166h-96l16 166h-262zM981 252h178l31 305z" />
<glyph unicode="&#xbd;" horiz-adv-x="1617" d="M184 201l1174 1089l53 -73l-1171 -1090zM295 1370l8 78l223 6l-65 -631h-96l57 547h-127zM920 0l8 74l91 79q71 60 115 101t85 101.5t41 109.5q0 86 -91 86q-80 0 -145 -43l-35 67q80 61 193 62q178 0 178 -156q0 -74 -53.5 -153.5t-92 -114.5t-135.5 -109 q-16 -14 -24 -20h291l-9 -84h-417z" />
<glyph unicode="&#xbe;" horiz-adv-x="1619" d="M184 201l1174 1089l53 -73l-1171 -1090zM203 848l30 74q80 -27 150 -27q72 0 107.5 23.5t35.5 91.5q0 33 -13 54t-42 31.5t-48.5 13.5t-57.5 7l8 66q160 16 159 133q0 61 -92 61q-61 0 -114 -20l-31 63q68 41 162 41q68 0 116 -32.5t48 -98.5q0 -94 -101 -170 q100 -51 101 -139q0 -102 -67 -152.5t-171 -50.5q-110 0 -180 31zM879 166l12 106l254 359h143l-39 -379h117l-10 -86h-117l-16 -166h-97l17 166h-264zM973 252h178l33 305z" />
<glyph unicode="&#xbf;" horiz-adv-x="784" d="M94 37q0 88 37 160.5t90 125t108.5 100.5t98.5 107.5t53 124.5v127l111 13q8 -66 8 -97q0 -90 -40 -167.5t-96 -133.5l-113 -106q-56 -51 -96 -112.5t-40 -125.5q0 -127 105.5 -199.5t240.5 -84.5l-35 -103q-174 14 -303 110.5t-129 260.5zM481 973l15 145h141l-14 -145 h-142z" />
<glyph unicode="&#xc0;" horiz-adv-x="1251" d="M-66 0l721 1448h199l295 -1448h-127l-113 571h-565l-283 -571h-127zM395 676h494l-141 717zM453 1642l43 113l426 -170l-37 -84z" />
<glyph unicode="&#xc1;" horiz-adv-x="1251" d="M-66 0l721 1448h199l295 -1448h-127l-113 571h-565l-283 -571h-127zM395 676h494l-141 717zM578 1585l423 170l46 -113l-435 -141z" />
<glyph unicode="&#xc2;" horiz-adv-x="1251" d="M-66 0l721 1448h199l295 -1448h-127l-113 571h-565l-283 -571h-127zM381 1597l387 160l365 -160l-39 -86l-328 136l-344 -136zM395 676h494l-141 717z" />
<glyph unicode="&#xc3;" horiz-adv-x="1251" d="M-66 0l721 1448h199l295 -1448h-127l-113 571h-565l-283 -571h-127zM395 676h494l-141 717zM477 1642l10 9l22 17q9 7 26.5 17.5t36 16.5t46 11t56.5 5q49 0 130 -35.5t122 -35.5q78 0 143 57l39 -74q-10 -12 -30.5 -29.5t-66.5 -36t-98 -18.5q-47 0 -125.5 37t-123.5 37 q-70 0 -146 -49z" />
<glyph unicode="&#xc4;" horiz-adv-x="1251" d="M-66 0l721 1448h199l295 -1448h-127l-113 571h-565l-283 -571h-127zM395 676h494l-141 717zM463 1614l108 96l88 -96l-108 -98zM887 1614l108 96l88 -96l-108 -98z" />
<glyph unicode="&#xc5;" horiz-adv-x="1251" d="M-66 0l689 1382q-86 51 -86 158q0 90 74.5 163t174.5 73q86 0 146.5 -50.5t60.5 -138.5q0 -131 -108 -198l264 -1389h-127l-113 571h-565l-283 -571h-127zM395 676h494l-141 717zM629 1550q0 -55 33.5 -86.5t89.5 -31.5q66 0 108.5 42t42.5 105q0 53 -37 86t-88 33 q-66 0 -107.5 -41t-41.5 -107z" />
<glyph unicode="&#xc6;" horiz-adv-x="1820" d="M-98 0l981 1448h866l-10 -102h-652l-59 -566h608l-12 -106h-606l-62 -572h701l-10 -104l-822 2l70 674h-403l-451 -674h-139zM563 780h344l64 615z" />
<glyph unicode="&#xc7;" horiz-adv-x="1261" d="M106 639q0 367 211 594t574 227q199 0 323 -55l-45 -100q-129 47 -284 47q-311 0 -481.5 -194.5t-170.5 -516.5q0 -264 148.5 -406.5t411.5 -142.5q172 0 307 45l24 -106q-164 -51 -383 -51q-293 0 -464 180t-171 479zM571 -406q119 70 127 162q1 6 1 13q1 47 -37 127 h126q28 -52 28 -108q0 -11 -1 -21q-12 -154 -213 -236z" />
<glyph unicode="&#xc8;" horiz-adv-x="1150" d="M154 0l153 1448h772l-10 -102h-651l-60 -566h607l-11 -106h-606l-61 -572h700l-10 -104zM418 1642l43 113l426 -170l-37 -84z" />
<glyph unicode="&#xc9;" horiz-adv-x="1150" d="M154 0l153 1448h772l-10 -102h-651l-60 -566h607l-11 -106h-606l-61 -572h700l-10 -104zM489 1585l424 170l45 -113l-434 -141z" />
<glyph unicode="&#xca;" horiz-adv-x="1150" d="M154 0l153 1448h772l-10 -102h-651l-60 -566h607l-11 -106h-606l-61 -572h700l-10 -104zM334 1597l387 160l364 -160l-38 -86l-328 136l-344 -136z" />
<glyph unicode="&#xcb;" horiz-adv-x="1150" d="M154 0l153 1448h772l-10 -102h-651l-60 -566h607l-11 -106h-606l-61 -572h700l-10 -104zM397 1614l109 96l88 -96l-109 -98zM821 1614l109 96l88 -96l-109 -98z" />
<glyph unicode="&#xcc;" horiz-adv-x="583" d="M-2 1642l43 113l426 -170l-37 -84zM154 0l153 1448h121l-152 -1448h-122z" />
<glyph unicode="&#xcd;" horiz-adv-x="583" d="M154 0l153 1448h121l-152 -1448h-122zM242 1585l424 170l45 -113l-435 -141z" />
<glyph unicode="&#xce;" horiz-adv-x="583" d="M-12 1597l387 160l364 -160l-39 -86l-327 136l-344 -136zM154 0l153 1448h121l-152 -1448h-122z" />
<glyph unicode="&#xcf;" horiz-adv-x="583" d="M68 1614l108 96l88 -96l-108 -98zM154 0l153 1448h121l-152 -1448h-122zM492 1614l108 96l88 -96l-108 -98z" />
<glyph unicode="&#xd0;" horiz-adv-x="1466" d="M82 666l12 108h142l71 676h352q317 0 510 -162t193 -481q0 -401 -219 -604t-623 -203h-366l71 666h-143zM283 104h272q326 0 504 183.5t178 515.5q0 276 -157.5 409.5t-436.5 133.5h-229l-60 -572h303l-12 -108h-303z" />
<glyph unicode="&#xd1;" horiz-adv-x="1486" d="M154 0l155 1448h203l557 -1403l143 1403h121l-157 -1448h-215l-541 1368l-144 -1368h-122zM539 1642l10 9l21 17q9 7 26.5 17.5t36 16.5t46.5 11t56 5q49 0 130 -35.5t122 -35.5q78 0 143 57l39 -74q-10 -12 -30.5 -29.5t-66.5 -36t-97 -18.5q-47 0 -126 37t-124 37 q-70 0 -145 -49z" />
<glyph unicode="&#xd2;" horiz-adv-x="1595" d="M106 635q0 369 210 602t571 233q289 0 446.5 -179t157.5 -478q0 -371 -212 -603.5t-577 -232.5q-289 0 -442.5 178.5t-153.5 479.5zM231 639q0 -250 124 -403.5t366 -153.5q305 0 473 209t168 524q0 250 -127 398.5t-367 148.5q-299 0 -468 -206t-169 -517zM524 1640 l43 113l426 -170l-37 -84z" />
<glyph unicode="&#xd3;" horiz-adv-x="1595" d="M106 635q0 369 210 602t571 233q289 0 446.5 -179t157.5 -478q0 -371 -212 -603.5t-577 -232.5q-289 0 -442.5 178.5t-153.5 479.5zM231 639q0 -250 124 -403.5t366 -153.5q305 0 473 209t168 524q0 250 -127 398.5t-367 148.5q-299 0 -468 -206t-169 -517zM674 1585 l424 170l45 -113l-434 -141z" />
<glyph unicode="&#xd4;" horiz-adv-x="1595" d="M106 635q0 369 210 602t571 233q289 0 446.5 -179t157.5 -478q0 -371 -212 -603.5t-577 -232.5q-289 0 -442.5 178.5t-153.5 479.5zM231 639q0 -250 124 -403.5t366 -153.5q305 0 473 209t168 524q0 250 -127 398.5t-367 148.5q-299 0 -468 -206t-169 -517zM481 1597 l387 160l365 -160l-39 -86l-328 136l-344 -136z" />
<glyph unicode="&#xd5;" horiz-adv-x="1595" d="M107 635q0 369 209.5 602t570.5 233q289 0 446.5 -179t157.5 -478q0 -371 -212 -603.5t-577 -232.5q-289 0 -442 178.5t-153 479.5zM231 639q0 -250 124 -403.5t366 -153.5q305 0 473 209t168 524q0 250 -127 398.5t-367 148.5q-299 0 -468 -206t-169 -517zM559 1642 l10 9l22 17q9 7 26.5 17.5t36 16.5t46 11t56.5 5q49 0 130 -35.5t122 -35.5q78 0 143 57l39 -74q-10 -12 -30.5 -29.5t-66.5 -36t-98 -18.5q-47 0 -125.5 37t-124.5 37q-70 0 -145 -49z" />
<glyph unicode="&#xd6;" horiz-adv-x="1595" d="M106 635q0 369 210 602t571 233q289 0 446.5 -179t157.5 -478q0 -371 -212 -603.5t-577 -232.5q-289 0 -442.5 178.5t-153.5 479.5zM231 639q0 -250 124 -403.5t366 -153.5q305 0 473 209t168 524q0 250 -127 398.5t-367 148.5q-299 0 -468 -206t-169 -517zM571 1614 l109 96l86 -96l-107 -98zM995 1614l109 96l88 -96l-109 -98z" />
<glyph unicode="&#xd7;" horiz-adv-x="987" d="M84 442l313 285l-245 277l84 77l247 -276l303 274l70 -80l-301 -272l250 -281l-86 -77l-250 280l-315 -284z" />
<glyph unicode="&#xd8;" horiz-adv-x="1595" d="M47 20l174 185q-115 170 -115 430q0 369 210 602t571 233q246 0 401 -133l158 168l84 -80l-164 -174q125 -172 125 -438q0 -371 -212 -603.5t-577 -232.5q-254 0 -407 142l-168 -176zM231 639q0 -201 80 -338l891 946q-125 115 -334 115q-299 0 -468 -206t-169 -517z M381 209q127 -127 340 -127q305 0 473 209t168 524q0 205 -86 342z" />
<glyph unicode="&#xd9;" horiz-adv-x="1462" d="M176 477l103 971h124l-100 -956q-4 -40 -4 -77q0 -333 371 -333q188 0 310 102.5t148 358.5l95 905h114l-96 -911q-16 -162 -72.5 -278t-139.5 -175t-169 -84t-184 -25q-111 0 -199 22.5t-166 76t-114 155.5q-26 71 -26 163q0 40 5 85zM487 1642l43 113l426 -170l-36 -84 z" />
<glyph unicode="&#xda;" horiz-adv-x="1462" d="M176 477l103 971h124l-100 -956q-4 -40 -4 -77q0 -333 371 -333q188 0 310 102.5t148 358.5l95 905h114l-96 -911q-16 -162 -72.5 -278t-139.5 -175t-169 -84t-184 -25q-111 0 -199 22.5t-166 76t-114 155.5q-26 71 -26 163q0 40 5 85zM588 1585l424 170l45 -113 l-434 -141z" />
<glyph unicode="&#xdb;" horiz-adv-x="1462" d="M176 477l103 971h124l-100 -956q-4 -40 -4 -77q0 -333 371 -333q188 0 310 102.5t148 358.5l95 905h114l-96 -911q-16 -162 -72.5 -278t-139.5 -175t-169 -84t-184 -25q-111 0 -199 22.5t-166 76t-114 155.5q-26 71 -26 163q0 40 5 85zM446 1597l388 160l364 -160 l-39 -86l-328 136l-344 -136z" />
<glyph unicode="&#xdc;" horiz-adv-x="1462" d="M176 477l103 971h124l-100 -956q-4 -40 -4 -77q0 -333 371 -333q188 0 310 102.5t148 358.5l95 905h114l-96 -911q-16 -162 -72.5 -278t-139.5 -175t-169 -84t-184 -25q-111 0 -199 22.5t-166 76t-114 155.5q-26 71 -26 163q0 40 5 85zM520 1614l109 96l86 -96l-107 -98z M944 1614l109 96l86 -96l-107 -98z" />
<glyph unicode="&#xdd;" horiz-adv-x="1013" d="M51 1448h133l305 -760l498 760h129l-579 -866l-62 -582h-121l60 582zM416 1585l424 170l45 -113l-434 -141z" />
<glyph unicode="&#xde;" horiz-adv-x="1146" d="M154 -2l153 1450h121l-29 -281h322q188 0 296.5 -89t108.5 -275q0 -139 -50 -239.5t-139 -155t-195.5 -79t-237.5 -24.5l10 105q106 2 183 17t149 54t109.5 118t37.5 198q0 150 -85 210t-242 60h-277l-110 -1069h-125z" />
<glyph unicode="&#xdf;" horiz-adv-x="1280" d="M123 -451l170 1635q25 225 142.5 313t301.5 88q72 0 136.5 -24.5t113.5 -90t49 -163.5q0 -72 -45 -143.5t-98 -120t-98 -99.5t-45 -84q0 -51 37.5 -103t92 -99.5t108.5 -99.5t92 -127t38 -159q0 -100 -64.5 -169.5t-142 -95t-157.5 -25.5q-137 0 -285 49l33 102 q113 -43 246 -43q104 0 180 48t76 114q0 63 -28 119.5t-69 97.5l-89 86l-89 86q-41 41 -68.5 97.5t-27.5 117.5q0 49 28.5 96t70.5 86l83 79q41 40 69.5 91.5t28.5 108.5q0 74 -57 118t-133 44q-154 0 -226.5 -75t-88.5 -222l-172 -1633h-113z" />
<glyph unicode="&#xe0;" d="M96 360q0 317 185.5 541.5t455.5 224.5q117 0 185 -14l-115 -1112h-117l25 219q-137 -125 -235.5 -185.5t-180.5 -60.5q-100 0 -151.5 106.5t-51.5 280.5zM211 379q0 -172 28.5 -232.5t84.5 -60.5q70 0 198.5 96.5t204.5 171.5l72 666q-20 4 -84 4q-215 0 -359.5 -195.5 t-144.5 -449.5zM481 1526l72 90l330 -264l-58 -76z" />
<glyph unicode="&#xe1;" d="M96 360q0 317 185.5 541.5t455.5 224.5q117 0 185 -14l-115 -1112h-117l25 219q-137 -125 -235.5 -185.5t-180.5 -60.5q-100 0 -151.5 106.5t-51.5 280.5zM211 379q0 -172 28.5 -232.5t84.5 -60.5q70 0 198.5 96.5t204.5 171.5l72 666q-20 4 -84 4q-215 0 -359.5 -195.5 t-144.5 -449.5zM514 1352l356 276l68 -86l-371 -262z" />
<glyph unicode="&#xe2;" d="M96 360q0 317 185.5 541.5t455.5 224.5q117 0 185 -14l-115 -1112h-117l25 219q-137 -125 -235.5 -185.5t-180.5 -60.5q-100 0 -151.5 106.5t-51.5 280.5zM211 379q0 -172 28.5 -232.5t84.5 -60.5q70 0 198.5 96.5t204.5 171.5l72 666q-20 4 -84 4q-215 0 -359.5 -195.5 t-144.5 -449.5zM297 1362l418 227l358 -227l-51 -80l-320 184l-358 -184z" />
<glyph unicode="&#xe3;" d="M96 360q0 317 185.5 541.5t455.5 224.5q117 0 185 -14l-115 -1112h-117l25 219q-137 -125 -235.5 -185.5t-180.5 -60.5q-100 0 -151.5 106.5t-51.5 280.5zM211 379q0 -172 28.5 -232.5t84.5 -60.5q70 0 198.5 96.5t204.5 171.5l72 666q-20 4 -84 4q-215 0 -359.5 -195.5 t-144.5 -449.5zM412 1425q2 2 12 11l19 15q9 7 26.5 17.5t36 17.5t46.5 12t56 5q49 0 131 -36.5t123 -36.5q76 0 142 57l40 -74q-84 -84 -194 -84q-47 0 -127 37t-125 37q-74 0 -145 -49z" />
<glyph unicode="&#xe4;" d="M96 360q0 317 185.5 541.5t455.5 224.5q117 0 185 -14l-115 -1112h-117l25 219q-137 -125 -235.5 -185.5t-180.5 -60.5q-100 0 -151.5 106.5t-51.5 280.5zM211 379q0 -172 28.5 -232.5t84.5 -60.5q70 0 198.5 96.5t204.5 171.5l72 666q-20 4 -84 4q-215 0 -359.5 -195.5 t-144.5 -449.5zM401 1464l109 99l88 -99l-109 -96zM825 1464l109 99l88 -99l-109 -96z" />
<glyph unicode="&#xe5;" d="M96 360q0 317 185.5 541.5t455.5 224.5q117 0 185 -14l-115 -1112h-117l25 219q-137 -125 -235.5 -185.5t-180.5 -60.5q-100 0 -151.5 106.5t-51.5 280.5zM211 379q0 -172 28.5 -232.5t84.5 -60.5q70 0 198.5 96.5t204.5 171.5l72 666q-20 4 -84 4q-215 0 -359.5 -195.5 t-144.5 -449.5zM479 1432q0 104 72 170.5t178 66.5q84 0 145.5 -51t61.5 -129q0 -104 -69.5 -169t-176.5 -65q-88 0 -149.5 48.5t-61.5 128.5zM567 1448q0 -55 36 -88t91 -33q66 0 109 41t43 107q0 53 -37 86.5t-88 33.5q-68 0 -111 -40.5t-43 -106.5z" />
<glyph unicode="&#xe6;" horiz-adv-x="1519" d="M96 336q0 338 183.5 564t455.5 226q86 0 185 -16l-19 -143q135 182 344 182q258 0 258 -244q0 -176 -270 -282l-385 -148q0 -12 -1 -33.5t-1 -31.5q0 -326 141 -326q111 0 350 111l43 -93l-31 -16q-28 -14 -35 -18.5t-34 -17.5t-38 -17l-38 -15q-27 -10 -43 -14 t-41.5 -11t-47 -10t-48.5 -5.5t-53 -2.5q-195 0 -230 265q-276 -266 -442 -267q-100 0 -151.5 100.5t-51.5 262.5zM211 379q0 -172 28.5 -232.5t84.5 -60.5q70 0 195.5 95t203.5 173l72 664l-101 4h-10q-123 0 -232 -93q-114 -97 -177.5 -246.5t-63.5 -303.5zM860 586 l342 137q186 74 187 178q0 76 -43 109.5t-107 33.5q-90 0 -160.5 -39.5t-112.5 -110.5t-67 -145.5t-39 -162.5z" />
<glyph unicode="&#xe7;" horiz-adv-x="907" d="M96 375q0 330 144.5 551t392.5 221q143 0 244 -105l-70 -67q-86 72 -191 72q-111 0 -192.5 -66t-123.5 -169t-61.5 -206.5t-19.5 -206.5q0 -147 38 -231t87 -84q147 0 389 123l43 -86q-246 -145 -436 -146q-70 0 -120 41t-75.5 105.5t-37 128.5t-11.5 125zM268 -406 q129 75 130 171q0 48 -40 131h127q28 -52 28 -108q0 -11 -1 -21q-12 -154 -213 -236z" />
<glyph unicode="&#xe8;" horiz-adv-x="886" d="M94 389q0 326 138.5 543t379.5 217q129 0 193.5 -68.5t64.5 -175.5q0 -176 -270 -282l-385 -148q-2 -20 -2 -63q0 -328 139 -328q133 0 355 111l41 -93q-172 -90 -267 -110q-72 -16 -143 -17q-129 0 -186.5 116t-57.5 298zM225 586l344 137q186 74 187 178 q0 76 -43 109.5t-107 33.5q-305 1 -381 -458zM362 1526l72 90l332 -264l-59 -76z" />
<glyph unicode="&#xe9;" horiz-adv-x="886" d="M94 389q0 326 138.5 543t379.5 217q129 0 193.5 -68.5t64.5 -175.5q0 -176 -270 -282l-385 -148q-2 -20 -2 -63q0 -328 139 -328q133 0 355 111l41 -93q-172 -90 -267 -110q-72 -16 -143 -17q-129 0 -186.5 116t-57.5 298zM225 586l344 137q186 74 187 178 q0 76 -43 109.5t-107 33.5q-305 1 -381 -458zM451 1352l358 276l68 -86l-371 -262z" />
<glyph unicode="&#xea;" horiz-adv-x="886" d="M94 389q0 326 138.5 543t379.5 217q129 0 193.5 -68.5t64.5 -175.5q0 -176 -270 -282l-385 -148q-2 -20 -2 -63q0 -328 139 -328q133 0 355 111l41 -93q-172 -90 -267 -110q-72 -16 -143 -17q-129 0 -186.5 116t-57.5 298zM225 586l344 137q186 74 187 178 q0 76 -43 109.5t-107 33.5q-305 1 -381 -458zM248 1362l418 227l358 -227l-51 -80l-320 184l-358 -184z" />
<glyph unicode="&#xeb;" horiz-adv-x="886" d="M94 389q0 326 138.5 543t379.5 217q129 0 193.5 -68.5t64.5 -175.5q0 -176 -270 -282l-385 -148q-2 -20 -2 -63q0 -328 139 -328q133 0 355 111l41 -93q-172 -90 -267 -110q-72 -16 -143 -17q-129 0 -186.5 116t-57.5 298zM225 586l344 137q186 74 187 178 q0 76 -43 109.5t-107 33.5q-305 1 -381 -458zM330 1464l108 99l88 -99l-108 -96zM756 1464l106 99l88 -99l-108 -96z" />
<glyph unicode="&#xec;" horiz-adv-x="573" d="M47 1526l72 90l330 -264l-58 -76zM139 0l119 1118h115l-119 -1118h-115z" />
<glyph unicode="&#xed;" horiz-adv-x="573" d="M141 0l117 1118h115l-117 -1118h-115zM180 1352l359 276l67 -86l-370 -262z" />
<glyph unicode="&#xee;" horiz-adv-x="573" d="M-39 1362l418 227l356 -227l-51 -80l-319 184l-359 -184zM141 0l117 1118h115l-117 -1118h-115z" />
<glyph unicode="&#xef;" horiz-adv-x="573" d="M41 1464l109 99l86 -99l-109 -96zM141 0l117 1118h115l-117 -1118h-115zM465 1464l108 99l86 -99l-106 -96z" />
<glyph unicode="&#xf0;" horiz-adv-x="1054" d="M96 336q0 348 188 571q184 219 458 219h10q8 0 28.5 -1t32.5 -1l16 156h-260l11 102h260l18 164h115l-19 -164h213l-10 -102h-213l-137 -1280h-115l23 219q-133 -129 -227.5 -187.5t-188.5 -58.5q-100 0 -151.5 105.5t-51.5 257.5zM211 379q0 -172 28.5 -232.5 t84.5 -60.5q70 0 198.5 96.5t204.5 171.5l72 666l-105 4h-10q-123 0 -232 -93q-114 -97 -177.5 -247.5t-63.5 -304.5z" />
<glyph unicode="&#xf1;" horiz-adv-x="1126" d="M141 0l117 1118h117l-21 -200q2 2 38 32l51 43l54 41q38 29 65.5 44.5t64.5 33.5t72.5 26.5t70.5 8.5q100 0 143 -38t43 -113.5t-12 -188.5l-88 -807h-115l86 780q15 95 16 152q0 36 -6 56q-15 54 -110 54q-31 0 -92.5 -33.5t-112.5 -70.5l-111 -83l-69 -52l-86 -803 h-115zM373 1425q2 2 12 11l19 15q9 7 27 17.5t36 17.5t46 12t56 5q49 0 130 -36.5t122 -36.5q78 0 144 57l41 -74q-84 -84 -195 -84q-47 0 -127 37t-125 37q-76 0 -145 -49z" />
<glyph unicode="&#xf2;" horiz-adv-x="1026" d="M96 358q0 360 150.5 574.5t390.5 214.5q141 0 219 -111.5t78 -259t-30 -284t-90 -255t-167.5 -190.5t-247 -72t-221.5 111.5t-82 271.5zM217 395q0 -317 217 -317q158 0 269.5 190.5t111.5 470.5q0 158 -51 233t-172 75q-145 0 -260 -197t-115 -455zM424 1526l72 90 l331 -264l-59 -76z" />
<glyph unicode="&#xf3;" horiz-adv-x="1026" d="M96 358q0 360 150.5 574.5t390.5 214.5q141 0 219 -111.5t78 -259t-30 -284t-90 -255t-167.5 -190.5t-247 -72t-221.5 111.5t-82 271.5zM217 395q0 -317 217 -317q158 0 269.5 190.5t111.5 470.5q0 158 -51 233t-172 75q-145 0 -260 -197t-115 -455zM426 1352l358 276 l68 -86l-371 -262z" />
<glyph unicode="&#xf4;" horiz-adv-x="1026" d="M96 358q0 360 150.5 574.5t390.5 214.5q141 0 219 -111.5t78 -259t-30 -284t-90 -255t-167.5 -190.5t-247 -72t-221.5 111.5t-82 271.5zM217 395q0 -317 217 -317q158 0 269.5 190.5t111.5 470.5q0 158 -51 233t-172 75q-145 0 -260 -197t-115 -455zM254 1362l420 227 l356 -227l-51 -80l-320 184l-358 -184z" />
<glyph unicode="&#xf5;" horiz-adv-x="1026" d="M96 358q0 360 150.5 574.5t390.5 214.5q141 0 219 -111.5t78 -259t-29.5 -284t-90 -255t-168 -190.5t-247 -72t-221.5 111.5t-82 271.5zM217 395q0 -317 217 -317q158 0 269.5 190.5t111.5 470.5q0 158 -51 233t-172 75q-145 0 -260 -197t-115 -455zM360 1425q2 2 13 11 l19 15q9 7 26.5 17.5t36 17.5t46 12t56.5 5q49 0 130 -36.5t122 -36.5q78 0 143 57l41 -74q-84 -84 -194 -84q-47 0 -127 37t-125 37q-76 0 -146 -49z" />
<glyph unicode="&#xf6;" horiz-adv-x="1026" d="M96 358q0 360 150.5 574.5t390.5 214.5q141 0 219 -111.5t78 -259t-30 -284t-90 -255t-167.5 -190.5t-247 -72t-221.5 111.5t-82 271.5zM217 395q0 -317 217 -317q158 0 269.5 190.5t111.5 470.5q0 158 -51 233t-172 75q-145 0 -260 -197t-115 -455zM338 1464l108 99 l89 -99l-109 -96zM764 1464l106 99l88 -99l-108 -96z" />
<glyph unicode="&#xf7;" horiz-adv-x="954" d="M86 668l12 110h766l-10 -110h-768zM373 354l12 135h131l-14 -135h-129zM436 961l15 135h129l-15 -135h-129z" />
<glyph unicode="&#xf8;" horiz-adv-x="1026" d="M-49 6l168 197q-23 78 -23 155q0 360 150.5 574.5t390.5 214.5q131 0 211 -100l113 129l73 -64l-133 -158q33 -80 33 -178q0 -147 -30 -283.5t-90 -255t-167.5 -190.5t-247.5 -72q-150 0 -233 129l-141 -163zM217 395q0 -23 4 -76l551 639q-51 88 -180 89 q-145 0 -260 -197t-115 -455zM248 199q47 -121 186 -121q158 0 269.5 190.5t111.5 470.5q0 64 -6 109z" />
<glyph unicode="&#xf9;" horiz-adv-x="1112" d="M168 297l88 821h115l-86 -776q-11 -81 -11 -135q0 -49 9 -76q18 -57 100 -57q23 0 47.5 5t51 17.5l48 23.5t49 32.5t44 33t45.5 36.5l38 34q9 8 35 35l29 26l86 801h115l-119 -1118h-115l21 201q-59 -61 -102.5 -99.5t-128.5 -81.5t-165 -43q-129 0 -171 76 q-29 53 -29 150q0 43 6 94zM403 1526l72 90l332 -264l-59 -76z" />
<glyph unicode="&#xfa;" horiz-adv-x="1112" d="M168 297l88 821h115l-86 -776q-11 -81 -11 -135q0 -49 9 -76q18 -57 100 -57q23 0 47.5 5t51 17.5l48 23.5t49 32.5t44 33t45.5 36.5l38 34q9 8 35 35l29 26l86 801h115l-119 -1118h-115l21 201q-59 -61 -102.5 -99.5t-128.5 -81.5t-165 -43q-129 0 -171 76 q-29 53 -29 150q0 43 6 94zM512 1352l358 276l68 -86l-371 -262z" />
<glyph unicode="&#xfb;" horiz-adv-x="1112" d="M168 297l88 821h115l-86 -776q-11 -81 -11 -135q0 -49 9 -76q18 -57 100 -57q23 0 47.5 5t51 17.5l48 23.5t49 32.5t44 33t45.5 36.5l38 34q9 8 35 35l29 26l86 801h115l-119 -1118h-115l21 201q-59 -61 -102.5 -99.5t-128.5 -81.5t-165 -43q-129 0 -171 76 q-29 53 -29 150q0 43 6 94zM258 1362l420 227l356 -227l-51 -80l-319 184l-359 -184z" />
<glyph unicode="&#xfc;" horiz-adv-x="1112" d="M168 297l88 821h115l-86 -776q-11 -81 -11 -135q0 -49 9 -76q18 -57 100 -57q23 0 47.5 5t51 17.5l48 23.5t49 32.5t44 33t45.5 36.5l38 34q9 8 35 35l29 26l86 801h115l-119 -1118h-115l21 201q-59 -61 -102.5 -99.5t-128.5 -81.5t-165 -43q-129 0 -171 76 q-29 53 -29 150q0 43 6 94zM336 1464l108 99l86 -99l-108 -96zM760 1464l108 99l86 -99l-106 -96z" />
<glyph unicode="&#xfd;" horiz-adv-x="931" d="M98 1118h127l158 -1059l328 684q45 96 73 208q22 87 23 140q0 15 -2 27h115q1 -15 1 -30q0 -141 -100 -353l-547 -1186h-108l194 451h-84zM459 1352l358 276l68 -86l-371 -262z" />
<glyph unicode="&#xfe;" horiz-adv-x="1095" d="M88 -451l215 1995h113h2l-64 -600q244 174 418 174q236 0 236 -317q0 -111 -21.5 -222.5t-70 -219t-116 -190.5t-169 -133t-219.5 -50q-66 0 -160 16l-49 -453h-115zM264 113l43 -10q25 -5 38 -8t34.5 -5t46.5 -2q102 0 184 49t133.5 125t85 174.5t47 189.5t13.5 177 q0 123 -36 167t-110 44q-141 0 -403 -180z" />
<glyph unicode="&#xff;" horiz-adv-x="935" d="M98 1118h127l158 -1059l328 684q45 96 73 208q22 87 23 140q0 15 -2 27h115q1 -15 1 -30q0 -141 -100 -353l-547 -1184h-108l194 449h-84zM246 1464l108 99l88 -99l-108 -96zM670 1464l108 99l88 -99l-108 -96z" />
<glyph unicode="&#x152;" horiz-adv-x="2187" d="M106 635q0 369 210 602t571 233q281 0 440 -172l16 150h773l-11 -102h-651l-59 -566h606l-10 -106h-607l-61 -572h700l-10 -102h-823l16 141q-203 -164 -504 -164q-289 0 -442.5 178.5t-153.5 479.5zM231 639q0 -250 124 -401.5t366 -151.5q330 0 506 250l80 764 q-119 258 -439 258q-299 0 -468 -204t-169 -515z" />
<glyph unicode="&#x153;" horiz-adv-x="1583" d="M96 358q0 360 150.5 574.5t390.5 214.5q106 0 177 -65.5t101 -170.5q143 238 394 238q129 0 193.5 -68.5t64.5 -175.5q0 -176 -271 -282l-385 -148q-2 -20 -2 -63q0 -328 140 -328q133 0 354 111l41 -93q-172 -90 -266 -110q-72 -16 -144 -17q-182 0 -229 246 q-145 -246 -406 -246q-139 0 -221 111.5t-82 271.5zM217 395q0 -317 217 -317q158 0 269.5 190.5t111.5 470.5q0 158 -51 233t-172 75q-145 0 -260 -197t-115 -455zM922 586l344 137q186 74 186 178q0 76 -43 109.5t-106 33.5q-305 1 -381 -458z" />
<glyph unicode="&#x178;" horiz-adv-x="1013" d="M51 1448h133l305 -760l498 760h129l-579 -866l-62 -582h-121l60 582zM287 1614l108 96l88 -96l-108 -98zM711 1614l108 96l88 -96l-108 -98z" />
<glyph unicode="&#x2c6;" horiz-adv-x="1097" d="M213 1362l420 227l356 -227l-51 -80l-320 184l-358 -184z" />
<glyph unicode="&#x2dc;" horiz-adv-x="1097" d="M381 1425q2 2 12 11l20 15q9 7 26.5 17.5t36 17.5t46 12t56.5 5q49 0 129.5 -36.5t121.5 -36.5q78 0 144 57l41 -74q-84 -84 -195 -84q-47 0 -127 37t-125 37q-76 0 -145 -49z" />
<glyph unicode="&#x2013;" horiz-adv-x="1024" d="M0 535v110h1024v-110h-1024z" />
<glyph unicode="&#x2014;" horiz-adv-x="2048" d="M0 535v110h2048v-110h-2048z" />
<glyph unicode="&#x2018;" horiz-adv-x="307" d="M119 1414q-1 14 -1 28q0 21 2 44q3 38 11 81h133q-15 -89 -15 -179q0 -107 21 -217h-98q-2 8 -12 38l-14.5 44.5t-12.5 46t-10 56t-4 58.5z" />
<glyph unicode="&#x2019;" horiz-adv-x="307" d="M86 1171q76 186 90 396h133q-2 -41 -6 -78t-14 -73l-16.5 -59.5t-23 -56t-21.5 -45t-24.5 -46t-21.5 -38.5h-96z" />
<glyph unicode="&#x201a;" horiz-adv-x="569" d="M63 -248q82 199 91 393h135q-2 -35 -6 -70.5t-9.5 -60t-15.5 -57.5l-15 -48q-5 -15 -21 -46l-19 -39q-4 -8 -21.5 -39t-19.5 -33h-99z" />
<glyph unicode="&#x201c;" horiz-adv-x="573" d="M148 1396v21q0 23 1 54q2 46 11 96h135q-15 -93 -15 -184q0 -108 21 -212h-98q0 2 -14.5 44t-17.5 54.5l-12.5 54.5t-10.5 72zM423 1395v22q0 24 1 54q2 46 10 96h135q-15 -94 -15 -188q0 -105 19 -208h-96l-15 44q-13 38 -17.5 53.5t-12.5 55.5t-9 71z" />
<glyph unicode="&#x201d;" horiz-adv-x="573" d="M72 1171q82 199 90 396h135q-2 -41 -7 -79t-14.5 -73t-16.5 -58.5t-22 -56.5l-22 -45q-6 -12 -25.5 -44.5t-21.5 -39.5h-96zM342 1171q76 186 90 396h133q-2 -41 -6 -78t-14 -73l-16.5 -59.5t-23 -56t-21.5 -45t-24.5 -46t-21.5 -38.5h-96z" />
<glyph unicode="&#x201e;" horiz-adv-x="555" d="M-20 -248q82 190 90 393h135q-2 -35 -6 -70.5t-9.5 -60t-15.5 -57.5l-15 -48q-5 -15 -21 -46l-19 -39q-4 -8 -21.5 -39t-19.5 -33h-98zM256 -248q76 186 90 393h133q-2 -35 -6 -70.5t-9 -60t-15 -57.5l-16 -48q-5 -15 -20 -46l-20 -39q-4 -8 -21.5 -39t-19.5 -33h-96z " />
<glyph unicode="&#x2022;" horiz-adv-x="1064" d="M236 729q0 121 85 205t205 84q125 0 214 -90t89 -215q0 -119 -83.5 -203t-204.5 -84q-127 0 -216 89t-89 214z" />
<glyph unicode="&#x2026;" horiz-adv-x="2039" d="M242 0l16 156h145l-16 -156h-145zM942 0l16 156h146l-17 -156h-145zM1667 0l16 156h146l-17 -156h-145z" />
<glyph unicode="&#x2039;" horiz-adv-x="528" d="M117 557l256 447l90 -35l-219 -412l131 -405l-96 -41z" />
<glyph unicode="&#x203a;" horiz-adv-x="528" d="M61 152l218 405l-132 412l99 37l160 -449l-254 -446z" />
<glyph unicode="&#x20ac;" horiz-adv-x="1177" d="M-25 479l13 109h172v24q0 121 26 246h-172l11 111h190q70 217 217.5 355t384.5 138q188 0 295 -59l-45 -94q-102 45 -264 45q-180 0 -300 -107.5t-179 -277.5h522l-10 -111h-543q-20 -96 -21 -192q0 -51 2 -78h533l-10 -109h-512q53 -389 401 -389q74 0 167 17.5 t122 29.5l31 -102q-135 -55 -344 -55q-104 0 -187.5 30.5t-136.5 78.5t-90 116.5t-54.5 134.5t-25.5 139h-193z" />
<glyph unicode="&#x2122;" horiz-adv-x="1677" d="M82 1360l10 88h586l-10 -88h-244l-68 -637h-96l68 637h-246zM602 723l139 725h111l166 -649l334 649h104l-16 -725h-101l19 557l-283 -557h-129l-147 563l-103 -563h-94z" />
<glyph unicode="&#xe000;" horiz-adv-x="1120" d="M0 1120h1120v-1120h-1120v1120z" />
<glyph unicode="&#xfb01;" horiz-adv-x="1173" d="M100 1016l13 102h163l7 58q23 227 125 318t270 91q31 0 145.5 -7t177.5 -7q23 0 53.5 4t37.5 4l16 -84q-66 -25 -188 -25q-55 0 -145.5 6.5t-110.5 6.5q-133 0 -193.5 -80t-75.5 -232l-6 -53h596l-119 -1118h-114l106 1016h-479l-154 -1465h-114l153 1465h-164z" />
<glyph unicode="&#xfb02;" horiz-adv-x="1157" d="M100 1016l13 102h163l7 58q23 227 125 318t270 91q37 0 143.5 -8t163.5 -8h24q15 0 23 2l-166 -1571h-114l155 1475q-13 -1 -29 -1q-41 0 -106 4q-90 5 -108 5q-133 0 -193.5 -80t-75.5 -232l-6 -53h240l-13 -102h-237l-154 -1467h-114l153 1467h-164z" />
<glyph unicode="&#xfb03;" horiz-adv-x="1671" d="M102 1016l11 102h163l13 113q39 354 461 354q61 0 168.5 -20.5t134.5 -28.5q96 49 211 49q31 0 145.5 -5t177.5 -5q33 0 90 4l6 -86q-59 -23 -178 -23q-51 2 -141 7.5t-115 5.5q-133 0 -193.5 -80t-74.5 -232l-6 -53h596l-119 -1118h-115l107 1016h-479l-154 -1467h-115 l154 1467h-475l-154 -1467h-108l153 1467h-164zM385 1118h477l6 58q18 172 84 278q-154 31 -227 31q-303 0 -328 -256z" />
<glyph unicode="&#xfb04;" horiz-adv-x="1744" d="M102 1016l11 102h163l13 113q39 354 461 354q113 0 301 -51q88 51 213 51q37 0 143 -8t164 -8h24q14 0 23 2l-164 -1571h-115l154 1475q-13 -1 -29 -1q-41 0 -105 4q-89 5 -108 5q-135 0 -194.5 -80t-73.5 -232l-6 -53h237l-10 -102h-237l-156 -1467h-113l154 1467h-477 l-154 -1467h-108l153 1467h-164zM385 1118h477l6 58q18 168 86 276q-154 33 -229 33q-303 0 -328 -256z" />
</font>
</defs>
</svg>
