<?xml version="1.0" standalone="no"?>
<!DOCTYPE svg PUBLIC "-//W3C//DTD SVG 1.1//EN" "http://www.w3.org/Graphics/SVG/1.1/DTD/svg11.dtd" >
<svg xmlns="http://www.w3.org/2000/svg">
<metadata>
This is a custom SVG webfont generated by Font Squirrel.
Copyright   : Design and copyright Peter Bilak 2001 Distributed by wwwtypothequecom
</metadata>
<defs>
<font id="FedraSansLightRegular" horiz-adv-x="614" >
<font-face units-per-em="2048" ascent="1638" descent="-410" />
<missing-glyph horiz-adv-x="500" />
<glyph unicode=" " />
<glyph unicode="!" horiz-adv-x="555" d="M188 0v145h142v-145h-142zM203 584v864h112v-864l-4 -258h-102z" />
<glyph unicode="&#x22;" horiz-adv-x="632" d="M102 1542h105l-10 -487h-88zM426 1542h104l-10 -487h-88z" />
<glyph unicode="#" horiz-adv-x="1161" d="M82 336v106h186l31 572h-217v104h221l19 330h108l-16 -330h372l19 330h108l-18 -330h184v-104h-188l-31 -572h219v-106h-225l-18 -336h-109l18 336h-374l-19 -336h-108l18 336h-180zM379 442h371l30 572h-372z" />
<glyph unicode="$" horiz-adv-x="1071" d="M102 63l45 105q158 -74 332 -74q66 0 126.5 12.5t118.5 40t93 82t35 129.5q0 109 -73.5 184.5t-178.5 123.5l-209 98q-104 51 -178 141t-74 219q0 139 87 223.5t231 102.5l-2 188h120l-4 -182q170 -2 297 -57l-32 -94q-131 49 -291 49q-131 0 -213 -53.5t-82 -167.5 q0 -84 53 -149.5t133 -105.5l173 -88q93 -48 173 -95.5t133.5 -131.5t53.5 -192q0 -170 -108.5 -267.5t-289.5 -115.5l7 -191h-123l2 187q-214 3 -355 79z" />
<glyph unicode="%" horiz-adv-x="1540" d="M92 1124.5q0 159.5 86 248.5t211 89q295 0 295 -321q0 -152 -86 -241t-215 -89q-131 0 -211 77t-80 236.5zM182 201l1067 1089l64 -67l-1067 -1092zM197 1124q0 -223 186 -223q92 0 146.5 64.5t54.5 175.5q0 109 -48.5 173t-146.5 64q-86 0 -139 -65.5t-53 -188.5z M856 297q0 160 86 249t211 89q295 0 295 -322q0 -152 -86 -240.5t-215 -88.5q-131 0 -211 76.5t-80 236.5zM961 297q0 -223 186 -223q92 0 146.5 64.5t54.5 174.5q0 109 -48.5 173.5t-146.5 64.5q-86 0 -139 -65.5t-53 -188.5z" />
<glyph unicode="&#x26;" horiz-adv-x="1374" d="M109 324q0 106 36.5 190t85 134t142.5 128q-68 182 -68 359q0 137 77 225t228 88q133 0 197.5 -74t64.5 -188q0 -61 -23.5 -115.5t-70.5 -100.5t-87 -77t-107.5 -74t-96.5 -65q119 -289 370 -471.5t527 -192.5l-8 -96q-258 0 -497 147q-72 -57 -111 -82.5t-116 -49 t-175 -23.5q-152 0 -260 78t-108 260zM215 334q0 -250 287 -250q137 0 293 113q-256 190 -390 481q-96 -82 -143 -160t-47 -184zM408 1153q0 -150 47 -307q16 12 88.5 62t110.5 81t77 85t39 106q0 80 -47 128t-121 48q-96 0 -145 -56.5t-49 -146.5z" />
<glyph unicode="'" horiz-adv-x="309" d="M102 1542h105l-10 -487h-88z" />
<glyph unicode="(" horiz-adv-x="677" d="M123 584q0 145 23.5 278t61.5 229.5t83 180.5t90 138t83 92t60 54l25 19l67 -80q-14 -10 -39.5 -32.5t-91 -103.5t-114.5 -177.5t-90 -257t-41 -338.5q0 -180 38.5 -345t94 -271.5t111 -187.5t94.5 -118l38 -37l-67 -80l-46 40q-30 26 -102.5 121t-129 205t-102.5 291 t-46 380z" />
<glyph unicode=")" horiz-adv-x="677" d="M61 -373q16 12 41 38t90.5 115t115.5 191.5t91 268.5t41 346q0 178 -39 337.5t-94 260t-110.5 174.5t-94.5 104l-39 33l68 80l45 -35q29 -23 102.5 -110t129 -190t101.5 -280.5t46 -376t-44 -377.5t-106.5 -294t-125 -202t-107.5 -124l-43 -39z" />
<glyph unicode="*" horiz-adv-x="862" d="M88 1069l207 94l37 -65l-185 -133zM88 1325l62 105l184 -132l-39 -67zM369 838l24 227h76l20 -227h-120zM371 1561h121l-21 -230h-76zM526 1096l41 67l205 -90l-61 -106zM526 1298l187 134l61 -103l-209 -94z" />
<glyph unicode="+" horiz-adv-x="929" d="M92 672v102h324v330h108v-330h326v-102h-326v-328h-108v328h-324z" />
<glyph unicode="," d="M207 -250q4 10 18.5 51t22.5 78t8 76v172h119v-53q0 -172 -72 -324h-96z" />
<glyph unicode="-" horiz-adv-x="733" d="M61 535v104h611v-104h-611z" />
<glyph unicode="." d="M242 0v145h141v-145h-141z" />
<glyph unicode="/" horiz-adv-x="1034" d="M0 -309l944 1843l90 -53l-944 -1843z" />
<glyph unicode="0" horiz-adv-x="1239" d="M123 700q0 160 26.5 291t84 239.5t162 169t247.5 60.5q139 0 236.5 -58.5t146.5 -165t69.5 -224t20.5 -267.5q0 -764 -508 -763q-485 -1 -485 718zM244 709q0 -127 17.5 -231.5t57 -197t116.5 -144.5t183 -52q94 0 164 39t110 98.5t64.5 149.5t31.5 174t7 188 q0 627 -364 627q-387 0 -387 -651z" />
<glyph unicode="1" d="M8 1348v88l402 12v-1448h-113v1348h-289z" />
<glyph unicode="2" horiz-adv-x="974" d="M20 0v106q2 2 80 74t176.5 172.5t200 220t171 249.5t69.5 227q0 172 -69.5 240.5t-215.5 68.5q-180 0 -309 -94l-51 84q156 117 370 116q391 0 392 -397q0 -115 -49.5 -231.5t-152 -244.5t-203.5 -232.5t-261 -252.5h766v-106h-914z" />
<glyph unicode="3" horiz-adv-x="995" d="M63 47l33 96q152 -53 312 -53q57 0 100 4t93 20.5t83 45t54.5 80t21.5 122.5q0 143 -119 234.5t-287 103.5v111q127 10 234.5 104.5t107.5 212.5q0 233 -274 234q-139 0 -240 -47l-39 86q133 61 287 61q174 0 273.5 -85t99.5 -242q0 -135 -92.5 -238.5t-196.5 -128.5 q135 -29 245.5 -134.5t110.5 -264.5q0 -385 -442 -385q-230 0 -365 63z" />
<glyph unicode="4" horiz-adv-x="1112" d="M49 412v112l578 924h180v-928h266v-108h-266v-412h-115v412h-643zM166 520h526v852z" />
<glyph unicode="5" horiz-adv-x="1050" d="M143 23l29 110q127 -37 305 -37q150 0 246 82t96 225q0 168 -95 252t-245 84q-143 0 -284 -16v725h694v-105h-586v-499q74 4 207 4q195 0 308.5 -112.5t113.5 -307.5q0 -213 -124 -328.5t-331 -115.5q-211 0 -334 39z" />
<glyph unicode="6" horiz-adv-x="1130" d="M131 616q0 410 165 628t437 218q115 0 178 -22l-22 -101q-57 16 -156 17q-119 0 -210 -49.5t-142 -123t-84 -178t-43 -199.5t-10 -202q0 -266 75.5 -397t282.5 -131q141 0 222 102.5t81 253.5q0 166 -86 251t-227 85q-47 0 -139 -14l-15 102q84 18 170 18 q205 0 307.5 -118.5t102.5 -302.5q0 -231 -116 -355.5t-314 -124.5q-113 0 -194 30t-142.5 101.5t-91 198.5t-29.5 313z" />
<glyph unicode="7" horiz-adv-x="858" d="M0 1341v107h850v-117l-629 -1345l-104 45l618 1310h-735z" />
<glyph unicode="8" horiz-adv-x="1132" d="M115 313q0 150 96 254.5t260 196.5q-156 100 -226.5 181t-70.5 212q0 147 106.5 226t303.5 79q184 0 281.5 -86t97.5 -209q0 -78 -24 -140t-78 -113.5t-91 -78t-115 -73.5q178 -104 270.5 -203.5t92.5 -224.5q0 -168 -120 -261t-337 -93q-207 0 -326.5 88.5t-119.5 244.5 zM233 324q0 -123 92.5 -183.5t247.5 -60.5q324 0 324 262q0 53 -28.5 103.5t-86 97.5t-98.5 74.5t-106 66.5l-21 12q-324 -173 -324 -372zM287 1153q0 -49 22.5 -95t66.5 -88t80 -69l89 -63l18 -13q135 82 211 157t76 169q0 215 -266 215q-297 0 -297 -213z" />
<glyph unicode="9" horiz-adv-x="1144" d="M123 993q0 221 119.5 343t316.5 122q205 0 331 -170t126 -475q0 -313 -73 -500.5t-208 -264.5t-354 -77q-66 0 -162 23l25 104q72 -18 137 -18q102 0 183 23.5t134.5 59.5t91 97.5t58 118.5t32 145t13.5 152.5t2 163.5q0 199 -88 354.5t-262 155.5q-143 0 -223 -96.5 t-80 -243.5q0 -203 82 -287t229 -84q66 0 147 16l21 -100q-96 -23 -199 -23q-193 0 -296 121t-103 340z" />
<glyph unicode=":" d="M236 0v145h143v-145h-143zM236 973v145h143v-145h-143z" />
<glyph unicode=";" d="M207 -250q4 10 18.5 51t22.5 78t8 76v172h119v-53q0 -172 -72 -324h-96zM236 973v145h143v-145h-143z" />
<glyph unicode="&#x3c;" horiz-adv-x="876" d="M61 631v186l754 326v-117l-696 -303l696 -301v-117z" />
<glyph unicode="=" horiz-adv-x="899" d="M61 473v102h777v-102h-777zM61 877v102h777v-102h-777z" />
<glyph unicode="&#x3e;" horiz-adv-x="876" d="M61 305v117l699 301l-699 303v117l754 -326v-186z" />
<glyph unicode="?" horiz-adv-x="784" d="M184 1350l25 102q190 -16 331.5 -118.5t141.5 -286.5q0 -70 -34 -136.5t-83 -118.5l-97 -103q-48 -50 -82 -108.5t-34 -117.5q0 -16 2 -41t6.5 -49.5t4.5 -30.5l-103 -18q-20 82 -20 137q0 94 51 179t111.5 138t111.5 122t51 134q0 139 -118 220.5t-265 95.5zM250 0v145 h141v-145h-141z" />
<glyph unicode="@" horiz-adv-x="1589" d="M123 535q0 242 64.5 424t179 290.5t258 161.5t313.5 53q246 0 387 -140t141 -437q0 -154 -41 -270.5t-106.5 -181t-139 -96.5t-149.5 -32q-140 0 -140 121q0 10 1 21q-41 -47 -119 -87t-129 -40q-88 0 -135 56t-47 193q0 211 106.5 334t284.5 123q111 0 197 -43l-58 -487 q-2 -18 -2 -32q0 -66 39 -67q59 0 110.5 19.5t102.5 69t82 150.5t31 245q0 479 -422 479q-141 0 -259 -41t-218.5 -131t-156.5 -251t-56 -382q0 -317 130 -455.5t380 -138.5q152 0 299 37l24 -96q-125 -51 -344 -51q-299 0 -453.5 183.5t-154.5 498.5zM565 580 q0 -96 21.5 -127t70.5 -31q59 0 129 45t107 90l43 365q-53 12 -88 12q-143 0 -213 -97t-70 -257z" />
<glyph unicode="A" horiz-adv-x="1331" d="M29 0l581 1448h168l533 -1448h-131l-207 571h-594l-229 -571h-121zM420 676h516l-246 678z" />
<glyph unicode="B" horiz-adv-x="1310" d="M246 0v1448h368q227 0 338 -95.5t111 -250.5q0 -215 -156 -309q-45 -27 -55 -23v-6l45 -6q168 -43 236 -187q35 -74 34 -168q0 -186 -118.5 -294.5t-372.5 -108.5h-430zM369 104h272q86 0 151.5 11.5t126 41t92 90t31.5 150.5q0 94 -31.5 154.5t-99 90.5t-145.5 40 t-199 10h-198v-588zM369 799h241q178 0 253 66.5t75 209.5q0 154 -90 215.5t-277 61.5h-202v-553z" />
<glyph unicode="C" horiz-adv-x="1308" d="M123 715q0 338 193.5 543.5t533.5 205.5q49 0 96 -3t82 -7t68.5 -9t56.5 -11l44 -13q22 -6 33 -10t19 -8l11 -4l-35 -105q-178 59 -371 60q-123 0 -227.5 -34t-191.5 -104.5t-136 -193.5t-49 -287q0 -330 182 -489.5t463 -159.5q182 0 340 51l33 -100q-131 -57 -410 -57 q-340 0 -537.5 205.5t-197.5 529.5z" />
<glyph unicode="D" horiz-adv-x="1515" d="M246 0v1448h354q354 0 573.5 -190.5t219.5 -528.5q0 -371 -206 -550t-575 -179h-366zM365 104h270q297 0 468 154t171 449q0 315 -184.5 475.5t-495.5 160.5h-229v-1239z" />
<glyph unicode="E" horiz-adv-x="1169" d="M246 0v1448h774v-100h-653v-568h608v-106h-608v-570h700v-104h-821z" />
<glyph unicode="F" horiz-adv-x="1116" d="M246 0v1448h809v-100h-688v-609h643v-108h-643v-631h-121z" />
<glyph unicode="G" horiz-adv-x="1429" d="M123 715q0 336 192.5 542.5t530.5 206.5q260 0 414 -65l-37 -107q-172 61 -371 62q-123 0 -227.5 -35t-190.5 -105.5t-135 -193.5t-49 -285q0 -168 51 -295t141 -202.5t204 -113.5t249 -38q143 0 270 31v491h121v-573q-207 -55 -428 -55q-344 0 -539.5 208t-195.5 527z " />
<glyph unicode="H" horiz-adv-x="1574" d="M246 0v1448h121v-668h841v668h121v-1448h-121v674h-841v-674h-121z" />
<glyph unicode="I" horiz-adv-x="612" d="M246 0v1448h121v-1448h-121z" />
<glyph unicode="J" horiz-adv-x="612" d="M-51 -287q174 96 235.5 234.5t61.5 361.5v1139h121v-1135q0 -262 -74 -423.5t-287 -266.5z" />
<glyph unicode="K" horiz-adv-x="1224" d="M246 0v1448h121v-1448h-121zM444 752v39l584 657h152l-605 -668l648 -780h-162z" />
<glyph unicode="L" horiz-adv-x="995" d="M246 0v1448h121v-1337h628v-111h-749z" />
<glyph unicode="M" horiz-adv-x="1933" d="M246 0v1448h198l498 -1403l551 1403h195v-1448h-121v1169l6 193l-533 -1362h-204l-480 1356l11 -193v-1163h-121z" />
<glyph unicode="N" horiz-adv-x="1593" d="M246 0v1448h198l785 -1389l-6 187v1202h125v-1448h-224l-766 1370l9 -137v-1233h-121z" />
<glyph unicode="O" horiz-adv-x="1669" d="M123 727q0 336 202.5 538.5t530.5 202.5t509 -208.5t181 -536.5q0 -334 -197.5 -541t-531.5 -207q-319 0 -506.5 209t-187.5 543zM242 729q0 -274 153.5 -461.5t427.5 -187.5q291 0 446.5 180t155.5 465q0 281 -157.5 460t-429.5 179q-283 0 -439.5 -178t-156.5 -457z " />
<glyph unicode="P" horiz-adv-x="1179" d="M246 0v1448h448q211 0 328 -112.5t117 -323.5q0 -203 -137.5 -331t-413.5 -128h-47v106h59q186 0 298 81t112 261q0 178 -89.5 262.5t-271.5 84.5h-280v-1348h-123z" />
<glyph unicode="Q" horiz-adv-x="1728" d="M123 727q0 336 202.5 538.5t530.5 202.5t509 -208.5t181 -536.5q0 -334 -197.5 -541t-531.5 -207q-319 0 -506.5 209t-187.5 543zM242 729q0 -274 153.5 -461.5t427.5 -187.5q291 0 446.5 180t155.5 465q0 281 -157.5 460t-429.5 179q-283 0 -439.5 -178t-156.5 -457z M805 -68q137 0 297 -61l82 -29q37 -12 79 -20t61 -12.5t68.5 -6.5t60.5 -2h75h78v-110q-12 0 -63 -1q-25 -1 -43.5 -1t-31.5 1q-25 1 -76 4t-87.5 9t-87 18.5t-97.5 30.5q-201 78 -315 78v102z" />
<glyph unicode="R" horiz-adv-x="1411" d="M246 0v1448h448q207 0 326 -102.5t119 -309.5q0 -137 -69 -242.5t-214 -154.5l246 -358q100 -147 272 -199l-24 -102q-197 14 -316 190l-295 438q-59 -12 -151 -12h-219v-596h-123zM369 709h231q193 0 301.5 69.5t108.5 245.5q0 174 -90.5 249t-270.5 75h-280v-639z" />
<glyph unicode="S" horiz-adv-x="1112" d="M123 63l45 105q158 -74 332 -74q66 0 126 12.5t118.5 40t93 82t34.5 129.5q0 109 -73.5 184.5t-177.5 123.5l-209 98q-104 51 -178 141t-74 219q0 162 112.5 247t290.5 85q195 0 326 -57l-33 -94q-131 49 -291 49q-131 0 -213 -53.5t-82 -167.5q0 -84 53.5 -149.5 t133.5 -105.5l173 -88q93 -48 173 -95.5t133 -131.5t53 -192q0 -190 -134 -288.5t-351 -98.5q-229 -1 -381 79z" />
<glyph unicode="T" horiz-adv-x="1132" d="M0 1339v109h1133v-109h-506v-1339h-121v1339h-506z" />
<glyph unicode="U" horiz-adv-x="1560" d="M225 479v969h125v-954q0 -412 434 -412q436 0 437 461v905h114v-913q0 -131 -34.5 -232.5t-89 -162t-129 -99.5t-147.5 -53.5t-151 -14.5q-86 0 -161.5 13.5t-150.5 48.5t-128 90t-86 145t-33 209z" />
<glyph unicode="V" horiz-adv-x="1282" d="M0 1448h135l488 -1350l538 1350h121l-575 -1448h-177z" />
<glyph unicode="W" horiz-adv-x="2043" d="M20 1448h130l399 -1376l409 1020l-120 356h125l471 -1378l471 1378h118l-495 -1448h-193l-321 936l-377 -936h-191z" />
<glyph unicode="X" horiz-adv-x="1193" d="M12 0l508 772l-414 676h138l348 -574l371 574h129l-437 -672l478 -776h-142l-407 674l-432 -674h-140z" />
<glyph unicode="Y" horiz-adv-x="1087" d="M12 1448h133l390 -766l415 766h125l-485 -881v-567h-121v571z" />
<glyph unicode="Z" horiz-adv-x="1083" d="M61 0v123l791 1218h-737v107h864v-109l-797 -1233h840v-106h-961z" />
<glyph unicode="[" horiz-adv-x="708" d="M246 -451v1995h319v-98h-205v-1798h205v-99h-319z" />
<glyph unicode="\" horiz-adv-x="1034" d="M0 1481l92 49l944 -1839l-96 -47z" />
<glyph unicode="]" horiz-adv-x="708" d="M143 -352h205v1798h-205v98h320v-1995h-320v99z" />
<glyph unicode="^" horiz-adv-x="1046" d="M123 602l326 846h176l299 -846h-136l-253 770l-287 -770h-125z" />
<glyph unicode="_" horiz-adv-x="1024" d="M0 -213h1024v-106h-1024v106z" />
<glyph unicode="`" horiz-adv-x="1155" d="M367 1532l63 92l361 -270l-56 -78z" />
<glyph unicode="a" horiz-adv-x="1136" d="M90 295q0 96 39 164.5t105.5 103.5t132 50.5t139.5 17.5l285 6v170q0 141 -69 188t-241 47q-98 0 -262 -51l-24 94q35 16 130 38t201 22q375 0 375 -287v-655q0 -109 107 -123l-11 -92q-9 -1 -18 -1q-59 0 -114 33q-62 39 -68 115q-6 -4 -35 -26.5t-58.5 -40t-75.5 -39 t-107.5 -33.5t-131.5 -12q-141 0 -220 80.5t-79 230.5zM201 309q0 -123 56 -176t167 -53q72 0 162 35t139 65.5t66 44.5v322l-295 -12q-141 -6 -218 -69t-77 -157z" />
<glyph unicode="b" horiz-adv-x="1206" d="M205 29v1515h112v-1437q86 -23 258 -23q190 0 291 128t101 333q0 78 -7.5 140.5t-29 128t-57 109.5t-98 72.5t-146.5 28.5q-63 0 -121 -14l-19 90q45 23 160 22q207 0 320.5 -144t113.5 -392q0 -168 -42 -289t-115.5 -187.5t-161.5 -96t-195 -29.5q-196 0 -364 45z" />
<glyph unicode="c" horiz-adv-x="997" d="M123 557q0 272 135 429t365 157q180 0 290 -60l-39 -96q-131 57 -260 57q-174 0 -274 -128t-100 -351q0 -252 99 -365.5t347 -113.5q39 0 83 6t82 14.5t44 8.5l20 -97q-92 -37 -245 -36q-285 0 -416 136t-131 439z" />
<glyph unicode="d" horiz-adv-x="1191" d="M123 549q0 283 145.5 438.5t364.5 155.5q131 0 241 -33v434h113v-1544h-113v115q-135 -131 -292 -131q-68 0 -124.5 10t-121 46t-109.5 94.5t-74.5 165t-29.5 249.5zM240 543q0 -231 90 -346t250 -115q128 0 294 143v781q-115 41 -243 41q-199 0 -295 -147.5t-96 -356.5z " />
<glyph unicode="e" horiz-adv-x="1083" d="M123 539q0 317 131 461.5t348 144.5q193 0 286 -136.5t93 -418.5v-41h-741q2 -147 34.5 -242.5t97 -141.5t134 -62.5t174.5 -16.5q55 0 145 15.5t119 25.5l23 -98q-10 -6 -48 -16.5t-119 -20.5t-169 -10q-250 0 -379 127t-129 430zM240 643h620q0 195 -70.5 304.5 t-212 109.5t-231.5 -105.5t-106 -308.5z" />
<glyph unicode="f" horiz-adv-x="667" d="M41 1014v104h164v109q0 360 409 360q137 0 230 -31l-21 -98q-125 27 -209 27q-152 0 -224.5 -55.5t-72.5 -200.5v-111h240v-104h-240v-1465h-112v1465h-164z" />
<glyph unicode="g" horiz-adv-x="1198" d="M127 555q0 291 142.5 439.5t365.5 148.5q164 0 350 -35v-1194q0 -190 -111.5 -287.5t-318.5 -97.5q-197 0 -336 35l23 106q147 -37 280 -37q82 0 139.5 11.5t109.5 42t77.5 96t25.5 166.5v141q-117 -106 -274 -106q-76 0 -136.5 11t-126 47t-109.5 97.5t-72.5 167 t-28.5 248.5zM240 549q0 -244 91 -354.5t277 -110.5q137 0 264 121v819q-119 20 -239 20q-205 0 -299 -137t-94 -358z" />
<glyph unicode="h" horiz-adv-x="1241" d="M205 0v1544h112v-557l101 71q31 22 120 53.5t177 31.5q78 0 137 -17.5t94 -52.5t57.5 -70.5t31.5 -90t12.5 -92.5t3.5 -93v-727h-105v694q0 178 -48 262t-206 84q-135 0 -375 -155v-885h-112z" />
<glyph unicode="i" horiz-adv-x="526" d="M152 1466l108 111l113 -111l-113 -112zM203 0v1118h116v-1118h-116z" />
<glyph unicode="j" horiz-adv-x="526" d="M-150 -434l19 96q45 -12 98 -12q131 0 184.5 82t53.5 227v1159h112v-1161q0 -408 -354 -408q-58 1 -113 17zM152 1466l110 111l113 -111l-113 -112z" />
<glyph unicode="k" horiz-adv-x="1103" d="M205 0v1544h112v-1544h-112zM399 592l490 526h139l-493 -524l247 -309q74 -90 149 -145.5t122 -69.5l-33 -84q-143 12 -299 204z" />
<glyph unicode="l" horiz-adv-x="526" d="M205 0v1544h112v-1544h-112z" />
<glyph unicode="m" horiz-adv-x="1923" d="M205 0v1118h112v-137q197 162 361 162q233 0 307 -164q4 4 32 22l40 27q12 8 43 26l50 27q19 10 52 23.5t60.5 21t61.5 12.5t67 5q92 0 158.5 -25.5t101.5 -63.5t55 -98.5t25.5 -110.5t5.5 -118v-727h-113v694q0 80 -8 133.5t-31.5 106.5t-77 79.5t-135.5 26.5 q-147 0 -360 -153q14 -90 14 -160v-727h-111v694q0 63 -3 106.5t-17 93.5t-40 80t-73 50t-114 20q-98 0 -351 -167v-877h-112z" />
<glyph unicode="n" horiz-adv-x="1243" d="M205 0v1118h112v-131q217 156 398 156q92 0 158.5 -28t101.5 -66.5t53.5 -101t22.5 -108.5t4 -112v-727h-109v694q0 178 -48 262t-206 84q-135 0 -375 -155v-885h-112z" />
<glyph unicode="o" horiz-adv-x="1214" d="M123 547q0 285 137 440.5t356 155.5q236 0 356 -149.5t120 -434.5t-134.5 -430t-353.5 -145q-225 0 -353 145.5t-128 417.5zM240 557q0 -207 88 -342t286 -135q104 0 178 41t113 112.5t55.5 151.5t16.5 174q0 88 -16.5 167t-54.5 154.5t-113.5 121t-182.5 45.5 q-104 0 -180 -44.5t-116 -120t-57 -155.5t-17 -170z" />
<glyph unicode="p" horiz-adv-x="1206" d="M205 -451v1569h112v-94q164 111 322 111q211 0 327.5 -146.5t116.5 -400.5q0 -324 -143 -464t-371 -140q-168 0 -252 14v-449h-112zM317 104q137 -20 258 -20q190 0 291 126t101 329q0 102 -13.5 182t-48.5 155.5t-106.5 116.5t-175.5 41q-80 0 -172.5 -43t-133.5 -76 v-811z" />
<glyph unicode="q" horiz-adv-x="1198" d="M123 563q0 270 146.5 425t363.5 155q190 0 354 -53v-1541h-113v496q-117 -61 -290 -61q-461 -1 -461 579zM236 557q0 -475 354 -475q174 0 284 72v860q-133 31 -245 30q-203 0 -298 -140t-95 -347z" />
<glyph unicode="r" horiz-adv-x="770" d="M205 0v1118h112v-149q39 70 132.5 120t195.5 50q82 0 125 -15l-22 -98q-61 14 -127 14q-182 0 -304 -200v-840h-112z" />
<glyph unicode="s" horiz-adv-x="927" d="M117 29l24 100q139 -43 273 -43q135 0 221 50t86 140q0 80 -57.5 134.5t-139.5 86t-165 68.5t-140 110t-57 181q0 139 94 212t256 73q121 0 244 -37l-23 -96q-119 35 -244 34q-109 0 -168 -49t-59 -129t57.5 -135t139.5 -90l165 -72q83 -37 140 -105.5t57 -168.5 q0 -88 -35.5 -151.5t-96 -95.5t-126 -46t-141.5 -14q-170 0 -305 43z" />
<glyph unicode="t" horiz-adv-x="825" d="M82 1012v106h164v230h108v-230h353v-106h-351v-709q0 -137 46.5 -176t191.5 -39q78 0 158 27l28 -101q-80 -31 -180 -30q-66 0 -99.5 2t-82.5 10t-74 28.5t-51.5 54.5t-36.5 90t-10 132v711h-164z" />
<glyph unicode="u" horiz-adv-x="1234" d="M195 399v719h112v-684q0 -68 2 -107.5t14.5 -92t36 -80t69.5 -48t112 -20.5q135 0 387 158v874h106v-1118h-106v135l-47 -31q-41 -27 -59.5 -37l-60.5 -31.5t-74 -30.5t-77 -18.5t-90 -9.5q-88 0 -150.5 29t-96 69t-52 102.5t-22.5 110.5t-4 111z" />
<glyph unicode="v" horiz-adv-x="1013" d="M41 1118h127l246 -811l75 -241l84 247l281 805h115l-391 -1118h-183z" />
<glyph unicode="w" horiz-adv-x="1781" d="M41 1118h119l327 -1044l330 1044h156l291 -1044l364 1044h113l-400 -1118h-163l-250 872l-35 146l-39 -144l-287 -874h-164z" />
<glyph unicode="x" horiz-adv-x="980" d="M43 0l383 571l-363 547h134l295 -456l292 456h127l-356 -540l383 -578h-139l-310 483l-313 -483h-133z" />
<glyph unicode="y" horiz-adv-x="1005" d="M41 1118h125l256 -835l65 -205l70 201l289 839h119l-547 -1569h-113l154 451h-64z" />
<glyph unicode="z" horiz-adv-x="997" d="M82 0v117l696 895h-637v106h766v-108l-708 -904h716v-106h-833z" />
<glyph unicode="{" horiz-adv-x="692" d="M115 502v116q74 0 127 67q46 58 46 125q0 10 -1 21l-45 431q-3 27 -3 51q0 138 88 199q103 73 279 73h25v-98h-37q-137 0 -197 -52q-48 -42 -48 -133q0 -22 3 -47l41 -376q3 -30 3 -57q0 -94 -39 -156q-50 -80 -148 -101v-4q187 -60 187 -259q0 -25 -3 -52l-41 -381 q-2 -19 -2 -37q0 -89 52 -132q62 -52 192 -52h37v-97h-25q-68 0 -117 6.5t-103 26t-87 53t-50 95.5q-11 39 -11 86q0 28 4 59l45 412q1 10 1 19q0 63 -46 124q-53 70 -127 70z" />
<glyph unicode="|" horiz-adv-x="524" d="M205 -451v1995h112v-1995h-112z" />
<glyph unicode="}" horiz-adv-x="692" d="M72 -352h37q129 0 192 52q52 43 52 128q0 19 -3 41l-41 381q-3 25 -2 48q0 199 187 263v4q-98 20 -149 101q-39 62 -39 156q0 27 3 57l41 376q3 25 3 47q0 90 -48 132q-59 51 -196 51h-37v100h24q176 0 281 -73q87 -61 87 -195q0 -26 -3 -55l-45 -431q-1 -11 -1 -21 q0 -68 46 -125q53 -67 127 -67v-116q-74 0 -127 -70q-46 -60 -46 -124q0 -10 1 -19l45 -412q4 -31 4 -59q0 -48 -11 -86q-17 -61 -50 -95t-87.5 -53.5t-103.5 -26t-117 -6.5h-24v97z" />
<glyph unicode="~" horiz-adv-x="1034" d="M41 756q121 88 258 88q111 0 235.5 -63.5t215.5 -63.5q84 0 178 67l65 -77q-113 -102 -243 -103q-113 0 -249 61.5t-214 61.5q-84 0 -191 -59z" />
<glyph unicode="&#xa0;" />
<glyph unicode="&#xa1;" horiz-adv-x="555" d="M188 971v145h142v-145h-142zM203 -332v864l4 259h102l4 -259v-864h-110z" />
<glyph unicode="&#xa2;" horiz-adv-x="1017" d="M123 772q0 250 113.5 402.5t310.5 179.5l-4 190h121l-5 -186q160 -8 254 -60l-39 -96q-131 57 -260 58q-174 0 -274 -128t-100 -352q0 -252 99 -365.5t347 -113.5q39 0 83 6t82 14.5t44 8.5l20 -97q-92 -37 -245 -36h-11l7 -197h-123l6 203q-219 27 -322.5 164 t-103.5 405z" />
<glyph unicode="&#xa3;" horiz-adv-x="927" d="M61 530v107h213q6 88 7 412q0 76 17 138t40.5 102t65.5 71t73 46t85 25.5t78 13.5t75 5t55 2l6 -100q-168 -12 -223 -31q-164 -57 -164 -265v-16q2 -71 2 -135q0 -151 -10 -268h395v-107h-401q-31 -307 -142 -424h695v-106h-838v109q82 27 126 178t48 243h-203z" />
<glyph unicode="&#xa4;" horiz-adv-x="1177" d="M0 475v111h156q-6 66 -6 129q0 84 8 143h-158v111h176q49 227 192.5 357t370.5 130q190 0 332 -67l-39 -89q-131 55 -297 56q-362 0 -440 -387h526v-111h-540q-6 -59 -7 -123q0 -86 9 -149h538v-111h-522q88 -385 477 -385q162 0 260 45l39 -94l-67.5 -26.5t-96 -19.5 t-172.5 -11q-242 0 -381 134t-186 357h-172z" />
<glyph unicode="&#xa5;" horiz-adv-x="1267" d="M102 1448h134l389 -766l415 766h125l-442 -803h399v-106h-442v-203h442v-107h-442v-229h-121v229h-420v107h420v203h-420v106h381z" />
<glyph unicode="&#xa6;" horiz-adv-x="524" d="M205 291h114v-742h-114v742zM205 803v739h114v-739h-114z" />
<glyph unicode="&#xa7;" horiz-adv-x="815" d="M102 721q0 70 42 138.5t106 117.5q-57 106 -57 199q0 252 319 301l23 -107q-221 -45 -222 -168q0 -88 64 -188l266 -414q70 -106 70 -246q0 -72 -43 -146.5t-107 -121.5q50 -77 50 -196q0 -17 -1 -35q-14 -274 -381 -291l-10 112q41 4 66.5 8.5t68.5 16.5t70 29.5 t47.5 49.5t20.5 73q0 121 -66 221l-252 397q-74 115 -74 250zM223 723q0 -82 56 -168l233 -371q82 55 82 178q0 96 -55 179l-230 354q-86 -66 -86 -172z" />
<glyph unicode="&#xa8;" horiz-adv-x="823" d="M106 1466l95 95l94 -95l-94 -96zM524 1466l94 95l97 -95l-97 -96z" />
<glyph unicode="&#xa9;" horiz-adv-x="1693" d="M123 727q0 342 206 545t539 203q336 0 519.5 -210t183.5 -542q0 -340 -198.5 -546t-543.5 -206q-330 0 -518 209t-188 547zM240 729q0 -178 63.5 -323.5t201.5 -238.5t331 -93q303 0 461.5 181t158.5 470q0 285 -160.5 466t-445.5 181q-293 0 -451.5 -179t-158.5 -464z M467 737q0 203 110.5 318.5t321.5 115.5q145 0 240 -55l-37 -80q-98 45 -201 45q-143 0 -237.5 -84t-94.5 -249q0 -168 101.5 -255t257.5 -87q76 0 190 34l31 -78q-119 -49 -246 -49q-209 0 -322.5 117t-113.5 307z" />
<glyph unicode="&#xaa;" horiz-adv-x="847" d="M123 623v92h604v-92h-604zM154 975q0 190 241 194l156 5v86q0 74 -36 97t-128 23q-25 0 -51.5 -5t-58 -13t-50.5 -12l-20 75q90 39 207 39q225 0 225 -176v-358q0 -59 63 -60l-6 -77q-9 -1 -17 -1q-41 0 -78 16q-44 19 -50 66q-100 -86 -217 -86q-86 0 -133 48.5 t-47 138.5zM242 983q0 -113 112 -113q76 0 197 86v142l-152 -8q-157 -7 -157 -107z" />
<glyph unicode="&#xab;" horiz-adv-x="856" d="M102 557l207 447l97 -35l-177 -412l174 -407l-94 -39zM442 557l209 447l94 -35l-176 -412l174 -407l-94 -39z" />
<glyph unicode="&#xac;" horiz-adv-x="919" d="M82 668v104h749v-428h-110v324h-639z" />
<glyph unicode="&#xad;" horiz-adv-x="733" d="M61 535v104h611v-104h-611z" />
<glyph unicode="&#xae;" horiz-adv-x="1693" d="M123 727q0 342 206 545t539 203q338 0 520.5 -209t182.5 -543q0 -340 -198.5 -546t-543.5 -206q-330 0 -518 208t-188 548zM240 729q0 -178 63.5 -323.5t201.5 -238.5t331 -93q303 0 461.5 181t158.5 470q0 285 -160.5 466t-445.5 181q-293 0 -451.5 -179t-158.5 -464z M567 330v856h275q127 0 197.5 -67.5t70.5 -194.5q0 -176 -160 -244l60 -73q47 -58 74.5 -89t74.5 -67.5t88 -49.5l-22 -86q-113 12 -207 129q-18 12 -170 215q-41 -4 -68 -4h-112v-325h-101zM668 748h120q217 0 218 167q0 96 -44 140.5t-145 44.5h-149v-352z" />
<glyph unicode="&#xaf;" horiz-adv-x="1097" d="M246 1382v99h596v-99h-596z" />
<glyph unicode="&#xb0;" horiz-adv-x="655" d="M61 1202q0 117 74 190.5t193 73.5q125 0 195.5 -69.5t70.5 -194.5t-75 -197.5t-197 -72.5q-261 0 -261 270zM164 1202q0 -184 162 -184q80 0 121.5 48t41.5 136q0 82 -43 131t-120 49q-76 0 -119 -48t-43 -132z" />
<glyph unicode="&#xb1;" horiz-adv-x="931" d="M82 0v106h768v-106h-768zM82 670v106h326v328h116v-328h326v-106h-326v-326h-116v326h-326z" />
<glyph unicode="&#xb2;" horiz-adv-x="524" d="M49 823v74q18 20 172 168q121 117 121 197q0 63 -24.5 87.5t-75.5 24.5q-84 0 -140 -43l-43 68q72 61 187 61q195 0 194 -186q0 -25 -4 -48.5t-17 -49t-21.5 -44t-33 -45t-33.5 -38t-40 -41t-37 -34.5l-41 -36l-37 -31h291v-84h-418z" />
<glyph unicode="&#xb3;" horiz-adv-x="507" d="M53 848l25 74q74 -27 151 -27q63 0 98 18.5t35 73.5q0 72 -38.5 96.5t-135.5 32.5v66q145 14 146 121q0 74 -98 73q-57 0 -113 -20l-37 63q61 41 158 41q76 0 128 -39t52 -108q0 -82 -84 -154q59 -31 87 -67.5t28 -94.5q0 -180 -217 -180q-107 0 -185 31z" />
<glyph unicode="&#xb4;" horiz-adv-x="1155" d="M379 1356l358 266l66 -90l-371 -256z" />
<glyph unicode="&#xb5;" horiz-adv-x="1249" d="M205 -451v1569h112v-684q0 -68 2.5 -107.5t14.5 -92t35.5 -80t69.5 -48t112 -20.5q135 0 387 158v874h106v-1118h-106v135l-47 -31q-41 -27 -59.5 -37l-60.5 -31.5t-73.5 -30.5t-77 -18.5t-90.5 -9.5q-131 0 -213 68v-496h-112z" />
<glyph unicode="&#xb6;" horiz-adv-x="1191" d="M61 1018q0 207 109 318.5t319 111.5h166v-875h-125q-469 1 -469 445zM516 -432l23 104q61 -10 98 -10q133 0 184 76t51 219v1491h115v-1493q0 -225 -93 -315.5t-259 -90.5q-82 1 -119 19z" />
<glyph unicode="&#xb7;" horiz-adv-x="524" d="M205 649v125h114v-125h-114z" />
<glyph unicode="&#xb8;" horiz-adv-x="919" d="M369 -406q111 68 110 162q0 51 -53 140h127q41 -66 41 -136q0 -149 -188 -229z" />
<glyph unicode="&#xb9;" horiz-adv-x="393" d="M63 1370v78l224 6v-631h-97v547h-127z" />
<glyph unicode="&#xba;" horiz-adv-x="847" d="M123 623v92h604v-92h-604zM133 1120q0 164 80 256t213 92q291 0 291 -342q0 -164 -83 -252t-216 -88q-137 0 -211 87t-74 247zM233 1124q0 -252 193 -252q188 0 188 254q0 256 -190.5 256t-190.5 -258z" />
<glyph unicode="&#xbb;" horiz-adv-x="856" d="M100 969l97 35l206 -447l-206 -446l-95 39l174 407zM440 969l97 35l206 -447l-206 -446l-95 39l174 407z" />
<glyph unicode="&#xbc;" horiz-adv-x="1626" d="M227 1370v78l224 6v-631h-97v547h-127zM240 201l1058 1089l62 -73l-1057 -1090zM944 166v106l217 359h144v-379h116v-86h-116v-166h-97v166h-264zM1030 252h178v305z" />
<glyph unicode="&#xbd;" horiz-adv-x="1617" d="M227 1370v78l224 6v-631h-97v547h-127zM240 201l1058 1089l62 -73l-1057 -1090zM995 0v74q18 20 172 168q121 117 121 196q0 63 -24.5 88t-75.5 25q-84 0 -139 -43l-43 67q72 61 186 62q195 0 194 -186q0 -25 -4 -48.5t-17 -49t-21.5 -44t-33 -45t-33.5 -38t-40 -41 t-37 -34.5l-41 -36l-37 -31h291v-84h-418z" />
<glyph unicode="&#xbe;" horiz-adv-x="1619" d="M190 848l23 74q74 -27 152 -27q63 0 98 18.5t35 73.5q0 72 -39 96.5t-135 32.5v66q147 14 147 121q0 74 -98 73q-66 0 -113 -20l-39 63q63 41 158 41q76 0 128 -39t52 -108q0 -86 -84 -154q117 -57 117 -162q0 -180 -217 -180q-109 0 -185 31zM240 201l1058 1089l62 -73 l-1057 -1090zM938 166v106l217 359h143v-379h117v-86h-117v-166h-96v166h-264zM1024 252h178v305z" />
<glyph unicode="&#xbf;" horiz-adv-x="784" d="M143 70q0 70 34 136t82 119l97 102q49 50 83 108.5t34 117.5q0 16 -2 41t-6 49.5t-4 30.5l102 19q20 -82 21 -138q0 -94 -51.5 -179t-112 -138t-111.5 -122t-51 -134q0 -139 118 -220t265 -95l-25 -103q-190 16 -331.5 119t-141.5 287zM434 971v145h141v-145h-141z" />
<glyph unicode="&#xc0;" horiz-adv-x="1331" d="M29 0l581 1448h168l533 -1448h-131l-207 571h-594l-229 -571h-121zM377 1642l43 113l426 -170l-37 -84zM420 676h516l-246 678z" />
<glyph unicode="&#xc1;" horiz-adv-x="1331" d="M29 0l581 1448h168l533 -1448h-131l-207 571h-594l-229 -571h-121zM420 676h516l-246 678zM545 1585l424 170l45 -113l-434 -141z" />
<glyph unicode="&#xc2;" horiz-adv-x="1331" d="M29 0l581 1448h168l533 -1448h-131l-207 571h-594l-229 -571h-121zM307 1597l387 160l365 -160l-39 -86l-328 136l-344 -136zM420 676h516l-246 678z" />
<glyph unicode="&#xc3;" horiz-adv-x="1331" d="M29 0l581 1448h168l533 -1448h-131l-207 571h-594l-229 -571h-121zM391 1649l10 8l20 15q9 7 26.5 16.5t36 15.5t46 11t56.5 5q53 0 133 -36.5t119 -36.5q78 0 135 57l49 -74q-10 -12 -30.5 -29.5t-66.5 -37t-96 -19.5q-47 0 -126.5 38t-124.5 38q-72 0 -142 -49z M420 676h516l-246 678z" />
<glyph unicode="&#xc4;" horiz-adv-x="1331" d="M29 0l581 1448h168l533 -1448h-131l-207 571h-594l-229 -571h-121zM379 1632l94 94l94 -94l-94 -96zM420 676h516l-246 678zM797 1632l94 94l96 -94l-96 -96z" />
<glyph unicode="&#xc5;" horiz-adv-x="1331" d="M29 0l561 1395q-125 49 -125 188q0 98 66.5 155.5t158.5 57.5q88 0 158 -52t70 -157q0 -139 -121 -190l514 -1397h-131l-207 571h-594l-229 -571h-121zM420 676h516l-246 678zM553 1589.5q0 -61.5 39 -99.5t100.5 -38t99 36t37.5 97q0 59 -42 97t-97 38q-61 0 -99 -34.5 t-38 -96z" />
<glyph unicode="&#xc6;" horiz-adv-x="1837" d="M0 0l827 1448h859v-100h-654v-568h608v-106h-608v-570h703v-104h-824v674h-403l-379 -674h-129zM567 780h344v606z" />
<glyph unicode="&#xc7;" horiz-adv-x="1288" d="M123 715q0 338 193.5 543.5t533.5 205.5q49 0 96 -3t82 -7t68.5 -9t56.5 -11l44 -13q22 -6 33 -10t19 -8l11 -4l-35 -105q-178 59 -371 60q-123 0 -227.5 -34t-191.5 -104.5t-136 -193.5t-49 -287q0 -330 182 -489.5t463 -159.5q182 0 340 51l33 -100q-131 -57 -410 -57 q-340 0 -537.5 205.5t-197.5 529.5zM696 -406q111 68 111 162q0 51 -53 140h127q41 -66 41 -136q0 -149 -189 -229z" />
<glyph unicode="&#xc8;" horiz-adv-x="1169" d="M246 0v1448h774v-100h-653v-568h608v-106h-608v-570h700v-104h-821zM356 1642l43 113l426 -170l-37 -84z" />
<glyph unicode="&#xc9;" horiz-adv-x="1169" d="M246 0v1448h774v-100h-653v-568h608v-106h-608v-570h700v-104h-821zM408 1585l423 170l46 -113l-435 -141z" />
<glyph unicode="&#xca;" horiz-adv-x="1169" d="M246 0v1448h774v-100h-653v-568h608v-106h-608v-570h700v-104h-821zM260 1597l387 160l365 -160l-39 -86l-328 136l-344 -136z" />
<glyph unicode="&#xcb;" horiz-adv-x="1169" d="M246 0v1448h774v-100h-653v-568h608v-106h-608v-570h700v-104h-821zM342 1632l94 94l94 -94l-94 -96zM760 1632l94 94l96 -94l-96 -96z" />
<glyph unicode="&#xcc;" horiz-adv-x="612" d="M-74 1642l43 113l426 -170l-37 -84zM246 0v1448h121v-1448h-121z" />
<glyph unicode="&#xcd;" horiz-adv-x="612" d="M162 1585l424 170l45 -113l-434 -141zM246 0v1448h121v-1448h-121z" />
<glyph unicode="&#xce;" horiz-adv-x="612" d="M-68 1597l387 160l365 -160l-39 -86l-328 136l-344 -136zM246 0v1448h121v-1448h-121z" />
<glyph unicode="&#xcf;" horiz-adv-x="612" d="M6 1632l94 94l95 -94l-95 -96zM246 0v1448h121v-1448h-121zM424 1632l94 94l96 -94l-96 -96z" />
<glyph unicode="&#xd0;" horiz-adv-x="1533" d="M78 666v110h168v672h354q354 0 573.5 -190.5t219.5 -528.5q0 -371 -206 -550t-575 -179h-366v666h-168zM365 104h270q297 0 468 154t171 449q0 315 -184.5 475.5t-495.5 160.5h-229v-567h260v-110h-260v-562z" />
<glyph unicode="&#xd1;" horiz-adv-x="1509" d="M246 0v1448h198l785 -1389l-6 187v1202h125v-1448h-224l-766 1370l9 -137v-1233h-121zM496 1649l10 8l19 15q9 7 26.5 16.5t36 15.5t46.5 11t56 5q53 0 133 -36.5t119 -36.5q78 0 135 57l49 -74q-10 -12 -30.5 -29.5t-66.5 -37t-95 -19.5q-47 0 -127 38t-125 38 q-72 0 -141 -49z" />
<glyph unicode="&#xd2;" horiz-adv-x="1669" d="M123 727q0 336 202.5 538.5t530.5 202.5t509 -208.5t181 -536.5q0 -334 -197.5 -541t-531.5 -207q-319 0 -506.5 209t-187.5 543zM242 729q0 -274 153.5 -461.5t427.5 -187.5q291 0 446.5 180t155.5 465q0 281 -157.5 460t-429.5 179q-283 0 -439.5 -178t-156.5 -457z M520 1642l43 113l426 -170l-37 -84z" />
<glyph unicode="&#xd3;" horiz-adv-x="1669" d="M123 727q0 336 202.5 538.5t530.5 202.5t509 -208.5t181 -536.5q0 -334 -197.5 -541t-531.5 -207q-319 0 -506.5 209t-187.5 543zM242 729q0 -274 153.5 -461.5t427.5 -187.5q291 0 446.5 180t155.5 465q0 281 -157.5 460t-429.5 179q-283 0 -439.5 -178t-156.5 -457z M633 1585l424 170l45 -113l-434 -141z" />
<glyph unicode="&#xd4;" horiz-adv-x="1669" d="M123 727q0 336 202.5 538.5t530.5 202.5t509 -208.5t181 -536.5q0 -334 -197.5 -541t-531.5 -207q-319 0 -506.5 209t-187.5 543zM242 729q0 -274 153.5 -461.5t427.5 -187.5q291 0 446.5 180t155.5 465q0 281 -157.5 460t-429.5 179q-283 0 -439.5 -178t-156.5 -457z M479 1597l387 160l365 -160l-39 -86l-328 136l-344 -136z" />
<glyph unicode="&#xd5;" horiz-adv-x="1669" d="M123 727q0 336 202.5 538.5t530.5 202.5t509 -208.5t181 -536.5q0 -334 -197.5 -541t-531.5 -207q-319 0 -506.5 209t-187.5 543zM242 729q0 -274 153.5 -461.5t427.5 -187.5q291 0 446.5 180t155.5 465q0 281 -157.5 460t-429.5 179q-283 0 -439.5 -178t-156.5 -457z M514 1649l10 8l20 15q9 7 26.5 16.5t36 15.5t46 11t56.5 5q53 0 133 -36.5t119 -36.5q78 0 135 57l49 -74q-10 -12 -30.5 -29.5t-67 -37t-95.5 -19.5q-47 0 -127 38t-125 38q-72 0 -141 -49z" />
<glyph unicode="&#xd6;" horiz-adv-x="1669" d="M123 727q0 336 202.5 538.5t530.5 202.5t509 -208.5t181 -536.5q0 -334 -197.5 -541t-531.5 -207q-319 0 -506.5 209t-187.5 543zM242 729q0 -274 153.5 -461.5t427.5 -187.5q291 0 446.5 180t155.5 465q0 281 -157.5 460t-429.5 179q-283 0 -439.5 -178t-156.5 -457z M532 1632l95 94l94 -94l-94 -96zM950 1632l94 94l97 -94l-97 -96z" />
<glyph unicode="&#xd7;" horiz-adv-x="946" d="M113 442l284 285l-276 277l78 75l276 -274l275 272l79 -78l-276 -274l281 -279l-78 -75l-279 278l-284 -284z" />
<glyph unicode="&#xd8;" horiz-adv-x="1669" d="M66 18l206 213q-150 197 -149 496q0 336 202.5 538.5t530.5 202.5q279 0 459 -159l198 204l84 -79l-202 -211q152 -199 151 -500q0 -334 -197.5 -541t-531.5 -207q-283 0 -467 168l-200 -206zM242 729q0 -240 114 -410l875 902q-156 143 -393 143q-283 0 -439.5 -178 t-156.5 -457zM432 229q154 -150 391 -149q291 0 446.5 180t155.5 465q0 242 -118 410z" />
<glyph unicode="&#xd9;" horiz-adv-x="1560" d="M225 479v969h125v-954q0 -412 434 -412q436 0 437 461v905h114v-913q0 -131 -34.5 -232.5t-89 -162t-129 -99.5t-147.5 -53.5t-151 -14.5q-86 0 -161.5 13.5t-150.5 48.5t-128 90t-86 145t-33 209zM479 1642l43 113l426 -170l-37 -84z" />
<glyph unicode="&#xda;" horiz-adv-x="1560" d="M225 479v969h125v-954q0 -412 434 -412q436 0 437 461v905h114v-913q0 -131 -34.5 -232.5t-89 -162t-129 -99.5t-147.5 -53.5t-151 -14.5q-86 0 -161.5 13.5t-150.5 48.5t-128 90t-86 145t-33 209zM571 1585l424 170l45 -113l-434 -141z" />
<glyph unicode="&#xdb;" horiz-adv-x="1560" d="M225 479v969h125v-954q0 -412 434 -412q436 0 437 461v905h114v-913q0 -131 -34.5 -232.5t-89 -162t-129 -99.5t-147.5 -53.5t-151 -14.5q-86 0 -161.5 13.5t-150.5 48.5t-128 90t-86 145t-33 209zM414 1597l387 160l364 -160l-39 -86l-327 136l-344 -136z" />
<glyph unicode="&#xdc;" horiz-adv-x="1560" d="M225 479v969h125v-954q0 -412 434 -412q436 0 437 461v905h114v-913q0 -131 -34.5 -232.5t-89 -162t-129 -99.5t-147.5 -53.5t-151 -14.5q-86 0 -161.5 13.5t-150.5 48.5t-128 90t-86 145t-33 209zM463 1632l94 94l94 -94l-94 -96zM881 1632l94 94l96 -94l-96 -96z" />
<glyph unicode="&#xdd;" horiz-adv-x="1087" d="M12 1448h133l390 -766l415 766h125l-485 -881v-567h-121v571zM428 1585l424 170l45 -113l-434 -141z" />
<glyph unicode="&#xde;" horiz-adv-x="1122" d="M215 0v1448h121v-283h330q444 0 444 -424q0 -201 -136 -319.5t-415 -118.5h-18v105l30 2q197 12 302.5 79.5t105.5 241.5q0 176 -87 254t-271 78h-283v-1063h-123z" />
<glyph unicode="&#xdf;" horiz-adv-x="1230" d="M205 -451v1635q0 211 94 304t276 93q55 0 104.5 -12.5t99.5 -42t79 -90t29 -146.5q0 -90 -60.5 -176t-120 -156.5t-59.5 -123.5q0 -72 48 -129.5t118 -98.5l139 -84q70 -43 118 -108.5t48 -149.5q0 -147 -95 -213.5t-230 -66.5q-104 0 -185.5 16t-107.5 29l26 98 q172 -41 246 -41q240 0 240 162q0 72 -48.5 126t-117.5 93l-139 81q-70 42 -118 112.5t-48 166.5q0 63 35.5 125t77.5 105t78 107.5t36 131.5q0 184 -193 185q-152 0 -205 -76t-53 -223v-1633h-112z" />
<glyph unicode="&#xe0;" horiz-adv-x="1136" d="M90 295q0 96 39 164.5t105.5 103.5t132 50.5t139.5 17.5l285 6v170q0 141 -69 188t-241 47q-98 0 -262 -51l-24 94q35 16 130 38t201 22q375 0 375 -287v-655q0 -109 107 -123l-11 -92q-9 -1 -18 -1q-59 0 -114 33q-62 39 -68 115q-6 -4 -35 -26.5t-58.5 -40t-75.5 -39 t-107.5 -33.5t-131.5 -12q-141 0 -220 80.5t-79 230.5zM201 309q0 -123 56 -176t167 -53q72 0 162 35t139 65.5t66 44.5v322l-295 -12q-141 -6 -218 -69t-77 -157zM346 1532l64 92l360 -270l-55 -78z" />
<glyph unicode="&#xe1;" horiz-adv-x="1136" d="M90 295q0 96 39 164.5t105.5 103.5t132 50.5t139.5 17.5l285 6v170q0 141 -69 188t-241 47q-98 0 -262 -51l-24 94q35 16 130 38t201 22q375 0 375 -287v-655q0 -109 107 -123l-11 -92q-9 -1 -18 -1q-59 0 -114 33q-62 39 -68 115q-6 -4 -35 -26.5t-58.5 -40t-75.5 -39 t-107.5 -33.5t-131.5 -12q-141 0 -220 80.5t-79 230.5zM201 309q0 -123 56 -176t167 -53q72 0 162 35t139 65.5t66 44.5v322l-295 -12q-141 -6 -218 -69t-77 -157zM379 1356l358 266l66 -90l-371 -256z" />
<glyph unicode="&#xe2;" horiz-adv-x="1136" d="M90 295q0 96 39 164.5t105.5 103.5t132 50.5t139.5 17.5l285 6v170q0 141 -69 188t-241 47q-98 0 -262 -51l-24 94q35 16 130 38t201 22q375 0 375 -287v-655q0 -109 107 -123l-11 -92q-9 -1 -18 -1q-59 0 -114 33q-62 39 -68 115q-6 -4 -35 -26.5t-58.5 -40t-75.5 -39 t-107.5 -33.5t-131.5 -12q-141 0 -220 80.5t-79 230.5zM147 1358l388 231l380 -231l-43 -76l-337 184l-340 -184zM201 309q0 -123 56 -176t167 -53q72 0 162 35t139 65.5t66 44.5v322l-295 -12q-141 -6 -218 -69t-77 -157z" />
<glyph unicode="&#xe3;" horiz-adv-x="1136" d="M90 295q0 96 39 164.5t105.5 103.5t132 50.5t139.5 17.5l285 6v170q0 141 -69 188t-241 47q-98 0 -262 -51l-24 94q35 16 130 38t201 22q375 0 375 -287v-655q0 -109 107 -123l-11 -92q-9 -1 -18 -1q-59 0 -114 33q-62 39 -68 115q-6 -4 -35 -26.5t-58.5 -40t-75.5 -39 t-107.5 -33.5t-131.5 -12q-141 0 -220 80.5t-79 230.5zM201 309q0 -123 56 -176t167 -53q72 0 162 35t139 65.5t66 44.5v322l-295 -12q-141 -6 -218 -69t-77 -157zM233 1432l11 8l19 15q9 7 26.5 16.5t36 15.5t46 11t56.5 5q53 0 133 -36.5t119 -36.5q78 0 135 57l49 -74 q-74 -86 -192 -86q-47 0 -127 38t-125 38q-76 0 -139 -49z" />
<glyph unicode="&#xe4;" horiz-adv-x="1136" d="M90 295q0 96 39 164.5t105.5 103.5t132 50.5t139.5 17.5l285 6v170q0 141 -69 188t-241 47q-98 0 -262 -51l-24 94q35 16 130 38t201 22q375 0 375 -287v-655q0 -109 107 -123l-11 -92q-9 -1 -18 -1q-59 0 -114 33q-62 39 -68 115q-6 -4 -35 -26.5t-58.5 -40t-75.5 -39 t-107.5 -33.5t-131.5 -12q-141 0 -220 80.5t-79 230.5zM201 309q0 -123 56 -176t167 -53q72 0 162 35t139 65.5t66 44.5v322l-295 -12q-141 -6 -218 -69t-77 -157zM223 1466l94 95l95 -95l-95 -96zM641 1466l94 95l96 -95l-96 -96z" />
<glyph unicode="&#xe5;" horiz-adv-x="1136" d="M90 295q0 96 39 164.5t105.5 103.5t132 50.5t139.5 17.5l285 6v170q0 141 -69 188t-241 47q-98 0 -262 -51l-24 94q35 16 130 38t201 22q375 0 375 -287v-655q0 -109 107 -123l-11 -92q-9 -1 -18 -1q-59 0 -114 33q-62 39 -68 115q-6 -4 -35 -26.5t-58.5 -40t-75.5 -39 t-107.5 -33.5t-131.5 -12q-141 0 -220 80.5t-79 230.5zM201 309q0 -123 56 -176t167 -53q72 0 162 35t139 65.5t66 44.5v322l-295 -12q-141 -6 -218 -69t-77 -157zM311 1458q0 98 66.5 155.5t159.5 57.5q88 0 157.5 -52t69.5 -157q0 -96 -62.5 -153.5t-161 -57.5t-164 53.5 t-65.5 153.5zM399 1464.5q0 -61.5 39 -99.5t100.5 -38t99.5 36t38 97q0 59 -42 97t-97 38q-61 0 -99.5 -34.5t-38.5 -96z" />
<glyph unicode="&#xe6;" horiz-adv-x="1738" d="M92 295q0 78 27.5 137.5t68.5 95t99.5 59t111 33t109.5 11.5l283 6v170q0 150 -68 195t-240 45q-45 0 -100 -10.5t-107.5 -25t-54.5 -14.5l-24 88q35 16 130 38t201 22q289 0 357 -180q125 180 379 180q373 0 372 -527v-47l-739 -30q2 -143 35 -236.5t97.5 -139.5 t135 -62.5t176.5 -16.5q119 0 263 41l22 -98q-98 -47 -334 -47q-313 0 -438 200q-4 -4 -38 -27l-60 -41q-27 -17 -74 -44t-89 -44.5t-96.5 -29.5t-105.5 -12q-141 0 -220 80.5t-79 230.5zM199 309q0 -129 59 -178t168 -49q72 0 198 62.5t197 115.5q-33 102 -37 281l-280 -9 q-150 -4 -227.5 -66.5t-77.5 -156.5zM901 639l617 31q0 176 -72 281.5t-207 105.5t-230.5 -103.5t-107.5 -314.5z" />
<glyph unicode="&#xe7;" horiz-adv-x="972" d="M123 557q0 272 135 429t365 157q180 0 290 -60l-39 -96q-131 57 -260 57q-174 0 -274 -128t-100 -351q0 -252 99 -365.5t347 -113.5q39 0 83 6t82 14.5t44 8.5l20 -97q-92 -37 -245 -36q-285 0 -416 136t-131 439zM492 -406q111 68 110 162q0 51 -53 140h127 q41 -66 41 -136q0 -149 -189 -229z" />
<glyph unicode="&#xe8;" horiz-adv-x="1083" d="M123 539q0 317 131 461.5t348 144.5q193 0 286 -136.5t93 -418.5v-41h-741q2 -147 34.5 -242.5t97 -141.5t134 -62.5t174.5 -16.5q55 0 145 15.5t119 25.5l23 -98q-10 -6 -48 -16.5t-119 -20.5t-169 -10q-250 0 -379 127t-129 430zM240 643h620q0 195 -70.5 304.5 t-212 109.5t-231.5 -105.5t-106 -308.5zM367 1532l63 92l361 -270l-56 -78z" />
<glyph unicode="&#xe9;" horiz-adv-x="1083" d="M123 539q0 317 131 461.5t348 144.5q193 0 286 -136.5t93 -418.5v-41h-741q2 -147 34.5 -242.5t97 -141.5t134 -62.5t174.5 -16.5q55 0 145 15.5t119 25.5l23 -98q-10 -6 -48 -16.5t-119 -20.5t-169 -10q-250 0 -379 127t-129 430zM240 643h620q0 195 -70.5 304.5 t-212 109.5t-231.5 -105.5t-106 -308.5zM379 1356l358 266l66 -90l-371 -256z" />
<glyph unicode="&#xea;" horiz-adv-x="1083" d="M123 539q0 317 131 461.5t348 144.5q193 0 286 -136.5t93 -418.5v-41h-741q2 -147 34.5 -242.5t97 -141.5t134 -62.5t174.5 -16.5q55 0 145 15.5t119 25.5l23 -98q-10 -6 -48 -16.5t-119 -20.5t-169 -10q-250 0 -379 127t-129 430zM195 1358l387 231l381 -231l-43 -76 l-338 184l-340 -184zM240 643h620q0 195 -70.5 304.5t-212 109.5t-231.5 -105.5t-106 -308.5z" />
<glyph unicode="&#xeb;" horiz-adv-x="1083" d="M123 539q0 317 131 461.5t348 144.5q193 0 286 -136.5t93 -418.5v-41h-741q2 -147 34.5 -242.5t97 -141.5t134 -62.5t174.5 -16.5q55 0 145 15.5t119 25.5l23 -98q-10 -6 -48 -16.5t-119 -20.5t-169 -10q-250 0 -379 127t-129 430zM240 643h620q0 195 -70.5 304.5 t-212 109.5t-231.5 -105.5t-106 -308.5zM270 1466l95 95l94 -95l-94 -96zM688 1466l94 95l97 -95l-97 -96z" />
<glyph unicode="&#xec;" horiz-adv-x="526" d="M-23 1532l64 92l360 -270l-55 -78zM205 0v1118h117v-1118h-117z" />
<glyph unicode="&#xed;" horiz-adv-x="526" d="M141 1356l359 266l65 -90l-370 -256zM205 0v1118h117v-1118h-117z" />
<glyph unicode="&#xee;" horiz-adv-x="526" d="M-123 1358l387 231l381 -231l-43 -76l-338 184l-340 -184zM205 0v1118h117v-1118h-117z" />
<glyph unicode="&#xef;" horiz-adv-x="526" d="M-27 1466l95 95l94 -95l-94 -96zM205 0v1118h117v-1118h-117zM391 1466l94 95l97 -95l-97 -96z" />
<glyph unicode="&#xf0;" horiz-adv-x="1224" d="M123 549q0 283 145.5 438.5t364.5 155.5q135 0 246 -33v170h-314v90h314v174h108v-174h152v-90h-152v-1280h-108v115q-135 -131 -297 -131q-68 0 -124.5 10t-121 46t-109.5 94.5t-74.5 165t-29.5 249.5zM240 543q0 -231 90 -346t250 -115q133 0 299 143v781 q-115 41 -248 41q-199 0 -295 -147.5t-96 -356.5z" />
<glyph unicode="&#xf1;" horiz-adv-x="1286" d="M205 0v1118h112v-131q217 156 398 156q92 0 158.5 -28t101.5 -66.5t53.5 -101t22.5 -108.5t4 -112v-727h-109v694q0 178 -48 262t-206 84q-135 0 -375 -155v-885h-112zM324 1432l10 8l19 15q9 7 26.5 16.5t36 15.5t46 11t56.5 5q53 0 133 -36.5t119 -36.5q78 0 135 57 l49 -74q-74 -86 -192 -86q-47 0 -127 38t-125 38q-76 0 -139 -49z" />
<glyph unicode="&#xf2;" horiz-adv-x="1214" d="M123 547q0 285 137 440.5t356 155.5q236 0 356 -149.5t120 -434.5t-134.5 -430t-353.5 -145q-225 0 -353 145.5t-128 417.5zM240 557q0 -207 88 -342t286 -135q104 0 178 41t113 112.5t55.5 151.5t16.5 174q0 88 -16.5 167t-54.5 154.5t-113.5 121t-182.5 45.5 q-104 0 -180 -44.5t-116 -120t-57 -155.5t-17 -170zM367 1532l63 92l361 -270l-56 -78z" />
<glyph unicode="&#xf3;" horiz-adv-x="1214" d="M123 547q0 285 137 440.5t356 155.5q236 0 356 -149.5t120 -434.5t-134.5 -430t-353.5 -145q-225 0 -353 145.5t-128 417.5zM240 557q0 -207 88 -342t286 -135q104 0 178 41t113 112.5t55.5 151.5t16.5 174q0 88 -16.5 167t-54.5 154.5t-113.5 121t-182.5 45.5 q-104 0 -180 -44.5t-116 -120t-57 -155.5t-17 -170zM399 1356l359 266l65 -90l-370 -256z" />
<glyph unicode="&#xf4;" horiz-adv-x="1214" d="M123 547q0 285 137 440.5t356 155.5q236 0 356 -149.5t120 -434.5t-134.5 -430t-353.5 -145q-225 0 -353 145.5t-128 417.5zM221 1358l387 231l381 -231l-43 -76l-338 184l-340 -184zM240 557q0 -207 88 -342t286 -135q104 0 178 41t113 112.5t55.5 151.5t16.5 174 q0 88 -16.5 167t-54.5 154.5t-113.5 121t-182.5 45.5q-104 0 -180 -44.5t-116 -120t-57 -155.5t-17 -170z" />
<glyph unicode="&#xf5;" horiz-adv-x="1214" d="M123 547q0 285 137 440.5t356 155.5q236 0 356 -149.5t120 -434.5t-134.5 -430t-353.5 -145q-225 0 -353 145.5t-128 417.5zM240 557q0 -207 88 -342t286 -135q104 0 178 41t113 112.5t55.5 151.5t16.5 174q0 88 -16.5 167t-54.5 154.5t-113.5 121t-182.5 45.5 q-104 0 -180 -44.5t-116 -120t-57 -155.5t-17 -170zM295 1432l10 8l20 15q9 7 26.5 16.5t36 15.5t46 11t55.5 5q53 0 133 -36.5t119 -36.5q78 0 136 57l49 -74q-74 -86 -193 -86q-47 0 -127 38t-125 38q-76 0 -139 -49z" />
<glyph unicode="&#xf6;" horiz-adv-x="1214" d="M123 547q0 285 137 440.5t356 155.5q236 0 356 -149.5t120 -434.5t-134.5 -430t-353.5 -145q-225 0 -353 145.5t-128 417.5zM240 557q0 -207 88 -342t286 -135q104 0 178 41t113 112.5t55.5 151.5t16.5 174q0 88 -16.5 167t-54.5 154.5t-113.5 121t-182.5 45.5 q-104 0 -180 -44.5t-116 -120t-57 -155.5t-17 -170zM299 1466l94 95l94 -95l-94 -96zM717 1466l94 95l96 -95l-96 -96z" />
<glyph unicode="&#xf7;" horiz-adv-x="950" d="M92 668v110h766v-110h-766zM410 356v133h131v-133h-131zM410 961v135h131v-135h-131z" />
<glyph unicode="&#xf8;" horiz-adv-x="1214" d="M68 2l147 176q-92 139 -92 369q0 285 137 440.5t356 155.5q199 0 318 -109l121 148l75 -64l-133 -160q94 -143 95 -399q0 -285 -134.5 -430t-353.5 -145q-203 0 -325 116l-138 -163zM240 557q0 -168 55 -285l565 674q-94 100 -250 101q-104 0 -180 -44.5t-116 -120 t-57 -155.5t-17 -170zM350 186q96 -106 264 -106q104 0 178 41t113 112.5t55.5 151.5t16.5 174q0 182 -62 303z" />
<glyph unicode="&#xf9;" horiz-adv-x="1245" d="M195 399v719h112v-684q0 -68 2 -107.5t14.5 -92t36 -80t69.5 -48t112 -20.5q135 0 387 158v874h106v-1118h-106v135l-47 -31q-41 -27 -59.5 -37l-60.5 -31.5t-74 -30.5t-77 -18.5t-90 -9.5q-88 0 -150.5 29t-96 69t-52 102.5t-22.5 110.5t-4 111zM387 1532l64 92 l360 -270l-55 -78z" />
<glyph unicode="&#xfa;" horiz-adv-x="1245" d="M195 399v719h112v-684q0 -68 2 -107.5t14.5 -92t36 -80t69.5 -48t112 -20.5q135 0 387 158v874h106v-1118h-106v135l-47 -31q-41 -27 -59.5 -37l-60.5 -31.5t-74 -30.5t-77 -18.5t-90 -9.5q-88 0 -150.5 29t-96 69t-52 102.5t-22.5 110.5t-4 111zM481 1356l359 266 l65 -90l-370 -256z" />
<glyph unicode="&#xfb;" horiz-adv-x="1245" d="M195 399v719h112v-684q0 -68 2 -107.5t14.5 -92t36 -80t69.5 -48t112 -20.5q135 0 387 158v874h106v-1118h-106v135l-47 -31q-41 -27 -59.5 -37l-60.5 -31.5t-74 -30.5t-77 -18.5t-90 -9.5q-88 0 -150.5 29t-96 69t-52 102.5t-22.5 110.5t-4 111zM246 1358l387 231 l381 -231l-43 -76l-338 184l-340 -184z" />
<glyph unicode="&#xfc;" horiz-adv-x="1245" d="M195 399v719h112v-684q0 -68 2 -107.5t14.5 -92t36 -80t69.5 -48t112 -20.5q135 0 387 158v874h106v-1118h-106v135l-47 -31q-41 -27 -59.5 -37l-60.5 -31.5t-74 -30.5t-77 -18.5t-90 -9.5q-88 0 -150.5 29t-96 69t-52 102.5t-22.5 110.5t-4 111zM332 1466l94 95l94 -95 l-94 -96zM750 1466l94 95l96 -95l-96 -96z" />
<glyph unicode="&#xfd;" horiz-adv-x="1110" d="M41 1118h125l256 -835l65 -205l70 201l289 839h119l-547 -1569h-113l154 451h-64zM399 1356l359 266l65 -90l-370 -256z" />
<glyph unicode="&#xfe;" horiz-adv-x="1206" d="M205 -451v1995h108v-520q164 111 326 111q211 0 327.5 -146.5t116.5 -400.5q0 -324 -143 -464t-371 -140q-172 0 -256 14v-449h-108zM313 104q137 -20 262 -20q190 0 289 125t99 330q0 82 -7.5 146.5t-29 132t-57 113.5t-99 74.5t-147.5 28.5q-80 0 -174.5 -43 t-135.5 -76v-811z" />
<glyph unicode="&#xff;" horiz-adv-x="1005" d="M41 1118h125l256 -835l65 -205l70 201l289 839h119l-547 -1569h-113l154 451h-64zM203 1466l94 95l94 -95l-94 -96zM621 1466l94 95l96 -95l-96 -96z" />
<glyph unicode="&#x152;" horiz-adv-x="2209" d="M123 727q0 338 202.5 540.5t530.5 202.5q238 0 426 -133v111h774v-100h-649v-568h604v-106h-604v-570h700v-104h-825v127q-74 -51 -125 -79t-140 -50.5t-200 -22.5q-319 0 -506.5 209t-187.5 543zM248 729q0 -272 151.5 -457.5t423.5 -185.5q303 0 459 201v870 q-156 201 -444 201q-281 0 -435.5 -176.5t-154.5 -452.5z" />
<glyph unicode="&#x153;" horiz-adv-x="1933" d="M123 547q0 285 137 440.5t356 155.5q313 0 420 -264q109 266 416 266q193 0 286 -136.5t93 -418.5v-41h-741q2 -147 34.5 -242.5t97 -141.5t134 -62.5t174.5 -16.5q55 0 145 15.5t119 25.5l23 -98q-10 -6 -48 -16.5t-119 -20.5t-169 -10q-176 0 -289 60t-166 200 q-121 -258 -422 -258q-225 0 -353 145.5t-128 417.5zM240 557q0 -207 88 -342t286 -135q104 0 178 41t113 112.5t55.5 151.5t16.5 174q0 88 -16.5 167t-54.5 154.5t-113.5 121t-182.5 45.5q-104 0 -180 -44.5t-116 -120t-57 -155.5t-17 -170zM1090 643h620 q0 195 -70.5 304.5t-212 109.5t-231.5 -105.5t-106 -308.5z" />
<glyph unicode="&#x178;" horiz-adv-x="1087" d="M12 1448h133l390 -766l415 766h125l-485 -881v-567h-121v571zM248 1632l94 94l94 -94l-94 -96zM666 1632l94 94l96 -94l-96 -96z" />
<glyph unicode="&#x2c6;" horiz-adv-x="1097" d="M78 1358l387 231l381 -231l-43 -76l-338 184l-340 -184z" />
<glyph unicode="&#x2dc;" horiz-adv-x="1097" d="M233 1432l11 8l19 15q9 7 26.5 16.5t36 15.5t46 11t56.5 5q53 0 133 -36.5t119 -36.5q78 0 135 57l49 -74q-74 -86 -192 -86q-47 0 -127 38t-125 38q-76 0 -139 -49z" />
<glyph unicode="&#x2013;" horiz-adv-x="1024" d="M0 535v104h1024v-104h-1024z" />
<glyph unicode="&#x2014;" horiz-adv-x="2048" d="M0 535v104h2048v-104h-2048z" />
<glyph unicode="&#x2018;" horiz-adv-x="282" d="M57 1497v49h119v-170q0 -41 8.5 -77.5t23.5 -77.5t17 -50h-96q-72 152 -72 326z" />
<glyph unicode="&#x2019;" horiz-adv-x="282" d="M57 1171q2 4 15.5 38t19.5 51.5t12.5 51.5t6.5 64v170h114v-49q0 -186 -69 -326h-99z" />
<glyph unicode="&#x201a;" horiz-adv-x="544" d="M156 -250q4 10 18 51t22.5 78t8.5 76v172h119v-53q0 -172 -72 -324h-96z" />
<glyph unicode="&#x201c;" horiz-adv-x="557" d="M57 1497v49h119v-170q0 -41 8.5 -77.5t23.5 -77.5t17 -50h-96q-72 152 -72 326zM332 1497v49h119v-170q0 -41 8 -77.5t23.5 -77.5t17.5 -50h-97q-71 152 -71 326z" />
<glyph unicode="&#x201d;" horiz-adv-x="557" d="M57 1171q2 4 15.5 38t19.5 51.5t12.5 51.5t6.5 64v170h114v-49q0 -186 -69 -326h-99zM328 1171q2 4 15 38l19.5 51.5t12.5 51.5t6 64v170h115v-49q0 -190 -72 -326h-96z" />
<glyph unicode="&#x201e;" horiz-adv-x="557" d="M68 -250l14 41l17 49q7 20 13.5 52t6.5 63v172h117v-53q0 -180 -72 -324h-96zM342 -250q2 8 15.5 40t19.5 50.5t12 51t6 63.5v172h115v-53q0 -188 -72 -324h-96z" />
<glyph unicode="&#x2022;" horiz-adv-x="1003" d="M205 721q0 129 86 213t211 84t211 -82t86 -215q0 -125 -87 -210t-210 -85q-125 0 -211 83t-86 212z" />
<glyph unicode="&#x2026;" horiz-adv-x="2039" d="M242 0v156h145v-156h-145zM942 0v156h145v-156h-145zM1667 0v156h145v-156h-145z" />
<glyph unicode="&#x2039;" horiz-adv-x="518" d="M102 557l207 447l97 -35l-177 -412l174 -407l-94 -39z" />
<glyph unicode="&#x203a;" horiz-adv-x="518" d="M102 969l97 35l207 -447l-207 -446l-95 43l175 403z" />
<glyph unicode="&#x20ac;" horiz-adv-x="1177" d="M0 475v111h156q-6 66 -6 129q0 84 8 143h-158v111h176q49 227 192.5 357t370.5 130q190 0 332 -67l-39 -89q-131 55 -297 56q-362 0 -440 -387h526v-111h-540q-6 -59 -7 -123q0 -86 9 -149h538v-111h-522q88 -385 477 -385q162 0 260 45l39 -94l-67.5 -26.5t-96 -19.5 t-172.5 -11q-242 0 -381 134t-186 357h-172z" />
<glyph unicode="&#x2122;" horiz-adv-x="1640" d="M61 1360v88h586v-88h-244v-639h-98v639h-244zM690 721v727h141l220 -649l249 649h136v-727h-99v598l-233 -598h-115l-205 602v-602h-94z" />
<glyph unicode="&#xe000;" horiz-adv-x="1120" d="M0 1120h1120v-1120h-1120v1120z" />
<glyph unicode="&#xfb01;" horiz-adv-x="1230" d="M41 1014v104h164v78q0 225 92 308t262 83q33 0 147.5 -6t176.5 -6q33 0 90 4l16 -88q-55 -20 -176 -21q-53 2 -142 8.5t-114 6.5q-135 0 -187.5 -73t-52.5 -220v-74h701v-1118h-117v1014h-584v-1465h-112v1465h-164z" />
<glyph unicode="&#xfb02;" horiz-adv-x="1230" d="M41 1014v104h164v72q0 393 354 393q33 0 147.5 -8t176.5 -8q16 0 70.5 4t64.5 4v-1575h-117v1470q-20 -1 -45 -1q-57 0 -139 7q-119 9 -160 9q-240 0 -240 -283v-84h244v-104h-244v-1465h-112v1465h-164z" />
<glyph unicode="&#xfb03;" horiz-adv-x="1925" d="M41 1014v104h164v113q0 104 35.5 177t98 110.5t131.5 54t153 16.5q186 0 383 -80q94 78 245 78q33 0 147.5 -6t176.5 -6q37 0 90 4l16 -88q-55 -20 -174 -21q-51 2 -142 8.5t-116 6.5q-135 0 -185 -81t-50 -233v-53h694v-1118h-115v1014h-579v-1465h-113v1465h-579v-1465 h-117v1465h-164zM322 1118h577v58q0 160 45 251q-53 18 -160.5 38t-167.5 20q-147 0 -220.5 -59.5t-73.5 -196.5v-111z" />
<glyph unicode="&#xfb04;" horiz-adv-x="1900" d="M41 1014v104h164v113q0 358 454 358q131 0 345 -80q84 78 243 78q33 0 147.5 -10t176.5 -10q18 0 59 4t49 4v-1575h-114v1473q-13 0 -29 -1q-55 0 -139 6q-109 7 -150 7q-135 0 -186 -79t-51 -228v-60h239v-104h-239v-1465h-113v1465h-575v-1465h-117v1465h-164z M322 1118h575v58q0 156 43 249q-57 20 -156.5 40t-167.5 20q-147 0 -220.5 -59.5t-73.5 -196.5v-111z" />
</font>
</defs>
</svg>
